%TF.GenerationSoftware,Altium Limited,Altium Designer,24.10.1 (45)*%
G04 Layer_Physical_Order=1*
G04 Layer_Color=255*
%FSLAX45Y45*%
%MOMM*%
%TF.SameCoordinates,A4C5ECB5-41BF-4DFD-91FD-69217BF74453*%
%TF.FilePolarity,Positive*%
%TF.FileFunction,Copper,L1,Top,Signal*%
%TF.Part,Single*%
G01*
G75*
%TA.AperFunction,SMDPad,CuDef*%
%ADD10R,0.55000X0.55000*%
%ADD11R,0.55000X0.55000*%
%ADD12R,1.00000X0.60000*%
%ADD13R,2.00000X0.70000*%
%TA.AperFunction,ConnectorPad*%
%ADD14R,1.80000X2.20000*%
%TA.AperFunction,SMDPad,CuDef*%
G04:AMPARAMS|DCode=15|XSize=1.14mm|YSize=1.63mm|CornerRadius=0.1425mm|HoleSize=0mm|Usage=FLASHONLY|Rotation=180.000|XOffset=0mm|YOffset=0mm|HoleType=Round|Shape=RoundedRectangle|*
%AMROUNDEDRECTD15*
21,1,1.14000,1.34500,0,0,180.0*
21,1,0.85500,1.63000,0,0,180.0*
1,1,0.28500,-0.42750,0.67250*
1,1,0.28500,0.42750,0.67250*
1,1,0.28500,0.42750,-0.67250*
1,1,0.28500,-0.42750,-0.67250*
%
%ADD15ROUNDEDRECTD15*%
%ADD16R,0.80000X0.80000*%
%ADD17R,0.62000X0.62000*%
%ADD18R,0.75000X1.45000*%
%ADD19R,0.70000X1.82500*%
%TA.AperFunction,Conductor*%
%ADD20C,0.25400*%
%TA.AperFunction,ComponentPad*%
%ADD21C,0.65000*%
%ADD22C,4.45500*%
%ADD23C,1.80000*%
%TA.AperFunction,ViaPad*%
%ADD24C,0.85000*%
D10*
X5232400Y4298400D02*
D03*
Y4388400D02*
D03*
X4127500Y6025600D02*
D03*
Y6115600D02*
D03*
D11*
X5353600Y2921000D02*
D03*
X5263600D02*
D03*
D12*
X4934600Y6032500D02*
D03*
X5174600Y6128000D02*
D03*
Y5937000D02*
D03*
D13*
X2895600Y6136600D02*
D03*
X3495600D02*
D03*
X2895600Y5816600D02*
D03*
X3495600D02*
D03*
X2895600Y5596600D02*
D03*
X3495600D02*
D03*
X2895600Y5376600D02*
D03*
X3495600D02*
D03*
D14*
X3828900Y3365700D02*
D03*
X3538900Y4165700D02*
D03*
X3828900D02*
D03*
D15*
X5703400Y2908300D02*
D03*
X6031400D02*
D03*
D16*
X3848100Y2769800D02*
D03*
Y2919800D02*
D03*
X4127500Y5703500D02*
D03*
Y5853500D02*
D03*
D17*
X4076700Y2916200D02*
D03*
Y2824200D02*
D03*
D18*
X4698300Y2921000D02*
D03*
X4928300D02*
D03*
D19*
X5918200Y4204300D02*
D03*
X6045200D02*
D03*
X6172200D02*
D03*
X6299200D02*
D03*
X6426200D02*
D03*
X6553200D02*
D03*
X6680200D02*
D03*
Y3491900D02*
D03*
X6553200D02*
D03*
X6426200D02*
D03*
X6299200D02*
D03*
X6172200D02*
D03*
X6045200D02*
D03*
X5918200D02*
D03*
D20*
X4613650Y3416300D02*
X5299450Y4102100D01*
X3879500Y3416300D02*
X4613650D01*
X3828900Y3365700D02*
X3879500Y3416300D01*
X3906200Y3443000D01*
X3215255Y6235700D02*
X3321479Y6129476D01*
X2805677Y6235700D02*
X3215255D01*
X2730500Y6160523D02*
X2805677Y6235700D01*
X2730500Y6057900D02*
X2898600Y5889800D01*
X2730500Y6057900D02*
Y6160523D01*
X2898600Y5889800D02*
X3011423D01*
X3033800Y5867423D01*
Y5859645D02*
Y5867423D01*
Y5859645D02*
X3229144Y5664300D01*
X4241800Y4228395D02*
Y6030877D01*
X3357400Y6144356D02*
Y6187423D01*
X3321479Y6129476D02*
X3342521D01*
X4241800Y6030877D02*
X4275623Y6064700D01*
X4449766D01*
X5022800Y5986677D02*
Y6078323D01*
X4448633Y6209800D02*
X4557733Y6100700D01*
X4550166Y5964300D02*
X5000423D01*
X4056580Y4043175D02*
X4241800Y4228395D01*
X4449766Y6064700D02*
X4550166Y5964300D01*
X3342521Y6129476D02*
X3357400Y6144356D01*
X5000423Y6100700D02*
X5022800Y6078323D01*
X3379777Y6209800D02*
X4448633D01*
X5000423Y5964300D02*
X5022800Y5986677D01*
X3357400Y6187423D02*
X3379777Y6209800D01*
X4557733Y6100700D02*
X5000423D01*
X4127500Y4216400D02*
Y5703500D01*
X3928600Y4017500D02*
X3934723D01*
X3700800Y2700000D02*
Y3789700D01*
X3928600Y4017500D01*
X3934723D02*
X3957100Y4039877D01*
Y4046000D02*
X4127500Y4216400D01*
X3957100Y4039877D02*
Y4046000D01*
X3374277Y5664300D02*
X3379777Y5669800D01*
X3633800Y5639645D02*
Y5647423D01*
X3611423Y5669800D02*
X3633800Y5647423D01*
X3683000Y4063555D02*
Y5590445D01*
X3644723Y4017500D02*
X3667100Y4039877D01*
Y4047656D01*
X3379777Y5669800D02*
X3611423D01*
X3633800Y5639645D02*
X3683000Y5590445D01*
X3620000Y4000555D02*
X3636944Y4017500D01*
X2960600Y6136600D02*
X3376499Y5720701D01*
X3746950Y5703500D02*
X4127500D01*
X3729749Y5720701D02*
X3746950Y5703500D01*
X3376499Y5720701D02*
X3729749D01*
X3229144Y5664300D02*
X3374277D01*
X3667100Y4047656D02*
X3683000Y4063555D01*
X3636944Y4017500D02*
X3644723D01*
X5294950Y3605850D02*
X5830121D01*
Y3377950D02*
X5845000Y3392829D01*
X5830121Y3605850D02*
X5845000Y3590971D01*
Y3392829D02*
Y3590971D01*
X5271431Y3377950D02*
X5830121D01*
X6743700Y3314700D02*
X6796950Y3367950D01*
X6293150Y3314700D02*
X6743700D01*
X6796950Y3367950D02*
X6885850D01*
X5917429Y3377429D02*
Y3491129D01*
X5918200Y3491900D01*
X5812383Y3200400D02*
X5954533Y3342550D01*
X5977266D01*
X5214159Y3256473D02*
X5796473D01*
X5917429Y3377429D01*
X5455204Y3200400D02*
X5812383D01*
X4852600Y2832677D02*
Y3009323D01*
X4858100Y2802650D02*
Y2827177D01*
X4882756Y3031700D02*
X4911755Y3060700D01*
X5018386D01*
X4852600Y3009323D02*
X4874977Y3031700D01*
X4801700Y2860518D02*
Y3030406D01*
X5018386Y3060700D02*
X5214159Y3256473D01*
X3754500Y2646300D02*
X4587482D01*
X5078667Y3307373D02*
X5200854D01*
X4874977Y3031700D02*
X4882756D01*
X4852600Y2832677D02*
X4858100Y2827177D01*
X4587482Y2646300D02*
X4801700Y2860518D01*
Y3030406D02*
X5078667Y3307373D01*
X5263600Y3008796D02*
X5455204Y3200400D01*
X3769900Y2713977D02*
X3792277Y2691600D01*
X3769900Y2713977D02*
Y2825623D01*
X3909423Y2697100D02*
X4546242D01*
X3903923Y2691600D02*
X3909423Y2697100D01*
X3769900Y2825623D02*
X3770000Y2825723D01*
X3792277Y2691600D02*
X3903923D01*
X3770000Y2825723D02*
Y3306800D01*
X3700800Y2700000D02*
X3754500Y2646300D01*
X3620000Y2704600D02*
Y4000555D01*
X5200854Y3307373D02*
X5271431Y3377950D01*
X3620000Y2704600D02*
X3733700Y2590900D01*
X4646350D01*
X5174600Y6128000D02*
X5391400D01*
X5562600Y6299200D01*
X3538900Y4165700D02*
Y4547572D01*
X3906200Y3443000D02*
Y3512500D01*
X3828900Y2939000D02*
Y3365700D01*
X3770000Y3306800D02*
X3828900Y3365700D01*
X4546242Y2697100D02*
X4716721Y2867579D01*
X3828900Y2939000D02*
X3848100Y2919800D01*
X5635700Y4191000D02*
X6169100Y4724400D01*
X5264150Y4191000D02*
X5635700D01*
X4603750Y3530600D02*
X5264150Y4191000D01*
X3924300Y3530600D02*
X4603750D01*
X3906200Y3512500D02*
X3924300Y3530600D01*
X6299200Y3491900D02*
Y3548150D01*
X5745250Y4102100D02*
X6299200Y3548150D01*
X5299450Y4102100D02*
X5745250D01*
X3505200Y4581272D02*
Y4597400D01*
Y4581272D02*
X3538900Y4547572D01*
X4056580Y3877020D02*
Y4043175D01*
X6885850Y3367950D02*
X6908800Y3390900D01*
Y3562147D02*
X7169100Y3822447D01*
X6908800Y3390900D02*
Y3562147D01*
X6172200Y3435650D02*
X6293150Y3314700D01*
X3937775Y2769800D02*
X3992175Y2824200D01*
X4386300D01*
X3848100Y2769800D02*
X3937775D01*
X4646350Y2590900D02*
X4858100Y2802650D01*
X4705821Y3016721D02*
X5294950Y3605850D01*
X4705821Y2928521D02*
Y3016721D01*
X4698300Y2921000D02*
X4705821Y2928521D01*
X4056580Y3877020D02*
X4071459Y3862141D01*
X4928300Y2921000D02*
X5263600D01*
X4386300Y2824200D02*
X4457700Y2895600D01*
X4861741Y3862141D02*
X5232400Y4232800D01*
X4071459Y3862141D02*
X4861741D01*
X2895600Y6136600D02*
X2960600D01*
X5977266Y3342550D02*
X6022900Y3388184D01*
Y3413350D01*
X6045200Y3435650D01*
X6172200D02*
Y3491900D01*
X7169100Y3822447D02*
Y4724400D01*
X6369100Y4502200D02*
Y4724400D01*
X6311900Y4445000D02*
X6369100Y4502200D01*
X6305550Y4438650D02*
X6311900Y4445000D01*
X6299200Y4204300D02*
X6305550Y4210650D01*
Y4438650D01*
X6031400Y2908300D02*
X6362700D01*
X5211900Y5876699D02*
X5232400Y5856200D01*
X5211900Y5876699D02*
Y5919700D01*
X5194600Y5937000D02*
X5211900Y5919700D01*
X5232400Y4388400D02*
Y5856200D01*
X6045200Y3435650D02*
Y3491900D01*
X5263600Y2921000D02*
Y3008796D01*
X5232400Y4232800D02*
Y4298400D01*
X5690700Y2921000D02*
X5703400Y2908300D01*
X5353600Y2921000D02*
X5690700D01*
X3851700Y2916200D02*
X4076700D01*
X3848100Y2919800D02*
X3851700Y2916200D01*
X4470850Y6115600D02*
X4553950Y6032500D01*
X4127500Y6115600D02*
X4470850D01*
X4553950Y6032500D02*
X4934600D01*
X5174600Y5937000D02*
X5194600D01*
X4127500Y5853500D02*
Y6025600D01*
X4106500Y6136600D02*
X4127500Y6115600D01*
X3495600Y6136600D02*
X4106500D01*
D21*
X3038900Y3495700D02*
D03*
Y3895700D02*
D03*
D22*
X7249100Y5824400D02*
D03*
X6089100D02*
D03*
D23*
X6969100Y4724400D02*
D03*
X6769100D02*
D03*
X6569100D02*
D03*
X7169100D02*
D03*
X6169100D02*
D03*
X6369100D02*
D03*
D24*
X4457700Y2895600D02*
D03*
X3505200Y4597400D02*
D03*
X6362700Y2908300D02*
D03*
X6311900Y4445000D02*
D03*
X5562600Y6299200D02*
D03*
%TF.MD5,62eac17710d7d68871f3f37bd1fb3b63*%
M02*
