%TF.GenerationSoftware,Altium Limited,Altium Designer,24.10.1 (45)*%
G04 Layer_Color=65535*
%FSLAX45Y45*%
%MOMM*%
%TF.SameCoordinates,B7086401-7AB7-4448-8119-44CCD126B3FB*%
%TF.FilePolarity,Positive*%
%TF.FileFunction,Legend,Top*%
%TF.Part,Single*%
G01*
G75*
%TA.AperFunction,NonConductor*%
%ADD25C,0.20000*%
%ADD26C,0.25000*%
%ADD27C,0.12700*%
%ADD28C,0.10000*%
%ADD29C,0.25400*%
D25*
X3863300Y5547100D02*
G03*
X3863300Y5547100I-10000J0D01*
G01*
X5766000Y7175000D02*
G03*
X5766000Y7185000I0J5000D01*
G01*
D02*
G03*
X5766000Y7175000I0J-5000D01*
G01*
D02*
G03*
X5766000Y7185000I0J5000D01*
G01*
X6843500Y5453000D02*
G03*
X6843500Y5453000I-10000J0D01*
G01*
X9122400Y6724700D02*
G03*
X9112400Y6724700I-5000J0D01*
G01*
D02*
G03*
X9122400Y6724700I5000J0D01*
G01*
D02*
G03*
X9112400Y6724700I-5000J0D01*
G01*
X6195800Y5478400D02*
G03*
X6195800Y5478400I-10000J0D01*
G01*
X5396900Y5392500D02*
X5496900D01*
X5361900Y5397000D02*
Y5689000D01*
X5291900D02*
X5361900D01*
X5291900Y5397000D02*
Y5689000D01*
Y5397000D02*
X5361900D01*
X6928000Y6068900D02*
Y6251400D01*
X5967000Y6033900D02*
X6987000D01*
X5967000Y5573900D02*
Y6033900D01*
Y5573900D02*
X6987000D01*
Y6033900D01*
D26*
X4944600Y5982400D02*
G03*
X4944600Y5982400I-12500J0D01*
G01*
D27*
X4597300Y5429100D02*
Y5489100D01*
X3997300Y5429100D02*
X4597300D01*
X3997300D02*
Y5500100D01*
X4597300Y6357100D02*
Y6429100D01*
X3997300D02*
X4597300D01*
X3997300Y6357100D02*
Y6429100D01*
X7038000Y5523000D02*
X7188000D01*
X7038000Y5383000D02*
X7188000D01*
X6390300Y5548400D02*
X6540300D01*
X6390300Y5408400D02*
X6540300D01*
D28*
X4801000Y6860000D02*
X5436000D01*
X4801000D02*
X5436000D01*
X4801000Y8090000D02*
X5436000D01*
X4801000D02*
X5436000D01*
X3886000D02*
X4251000D01*
X3886000D02*
X4251000D01*
X3886000Y6860000D02*
X4251000D01*
X3886000D02*
X4251000D01*
X5436000D02*
Y8090000D01*
Y6860000D02*
Y8090000D01*
X3886000Y6860000D02*
Y8090000D01*
Y6860000D02*
Y8090000D01*
X8322400Y5409700D02*
Y6134700D01*
Y5409700D02*
Y6134700D01*
Y5409700D02*
X9222400D01*
X8322400D02*
X9222400D01*
Y6459700D01*
Y5409700D02*
Y6459700D01*
X8493000Y6659700D02*
X8899400D01*
X8493000D02*
X8899400D01*
D29*
X3690620Y6331312D02*
Y6431280D01*
Y6397957D01*
X3757265Y6331312D01*
X3707281Y6381296D01*
X3757265Y6431280D01*
X6291993Y7811316D02*
Y7911284D01*
X6341977D01*
X6358638Y7894623D01*
Y7861300D01*
X6341977Y7844639D01*
X6291993D01*
X6325316D02*
X6358638Y7811316D01*
X6458606Y7911284D02*
X6391961D01*
Y7861300D01*
X6425284Y7877961D01*
X6441945D01*
X6458606Y7861300D01*
Y7827977D01*
X6441945Y7811316D01*
X6408622D01*
X6391961Y7827977D01*
X6282438Y7373923D02*
X6265777Y7390584D01*
X6232455D01*
X6215793Y7373923D01*
Y7307277D01*
X6232455Y7290616D01*
X6265777D01*
X6282438Y7307277D01*
X6382406Y7290616D02*
X6315761D01*
X6382406Y7357261D01*
Y7373923D01*
X6365745Y7390584D01*
X6332422D01*
X6315761Y7373923D01*
X3599593Y7987484D02*
Y7887516D01*
X3649577D01*
X3666238Y7904177D01*
Y7920839D01*
X3649577Y7937500D01*
X3599593D01*
X3649577D01*
X3666238Y7954161D01*
Y7970823D01*
X3649577Y7987484D01*
X3599593D01*
X3766206Y7887516D02*
X3699561D01*
X3766206Y7954161D01*
Y7970823D01*
X3749545Y7987484D01*
X3716222D01*
X3699561Y7970823D01*
X4848155Y6120584D02*
Y6020616D01*
X4898139D01*
X4914800Y6037277D01*
Y6103923D01*
X4898139Y6120584D01*
X4848155D01*
X4948122Y6020616D02*
X4981445D01*
X4964784D01*
Y6120584D01*
X4948122Y6103923D01*
X4831493Y5487216D02*
Y5587184D01*
X4881477D01*
X4898138Y5570523D01*
Y5537200D01*
X4881477Y5520539D01*
X4831493D01*
X4864816D02*
X4898138Y5487216D01*
X4981445D02*
Y5587184D01*
X4931461Y5537200D01*
X4998106D01*
X5665200Y5483177D02*
Y5549822D01*
X5648539Y5566484D01*
X5615216D01*
X5598555Y5549822D01*
Y5483177D01*
X5615216Y5466516D01*
X5648539D01*
X5631877Y5499838D02*
X5665200Y5466516D01*
X5648539D02*
X5665200Y5483177D01*
X5698523Y5466516D02*
X5731845D01*
X5715184D01*
Y5566484D01*
X5698523Y5549822D01*
X5013255Y5766616D02*
Y5866584D01*
X5063239D01*
X5079900Y5849923D01*
Y5816600D01*
X5063239Y5799939D01*
X5013255D01*
X5046577D02*
X5079900Y5766616D01*
X5113222D02*
X5146545D01*
X5129884D01*
Y5866584D01*
X5113222Y5849923D01*
X6711093Y7811316D02*
Y7911284D01*
X6761077D01*
X6777738Y7894623D01*
Y7861300D01*
X6761077Y7844639D01*
X6711093D01*
X6744416D02*
X6777738Y7811316D01*
X6877706Y7911284D02*
X6844384Y7894623D01*
X6811061Y7861300D01*
Y7827977D01*
X6827722Y7811316D01*
X6861045D01*
X6877706Y7827977D01*
Y7844639D01*
X6861045Y7861300D01*
X6811061D01*
X7206393Y6025316D02*
Y6125284D01*
X7256377D01*
X7273038Y6108622D01*
Y6075300D01*
X7256377Y6058638D01*
X7206393D01*
X7239716D02*
X7273038Y6025316D01*
X7373006D02*
X7306361D01*
X7373006Y6091961D01*
Y6108622D01*
X7356345Y6125284D01*
X7323022D01*
X7306361Y6108622D01*
X7727194Y5868216D02*
Y5968184D01*
X7777177D01*
X7793839Y5951523D01*
Y5918200D01*
X7777177Y5901539D01*
X7727194D01*
X7760516D02*
X7793839Y5868216D01*
X7827161Y5968184D02*
X7893806D01*
Y5951523D01*
X7827161Y5884877D01*
Y5868216D01*
X7422580Y5390314D02*
X7422574Y5490282D01*
X7472558Y5490285D01*
X7489220Y5473624D01*
X7489224Y5406979D01*
X7472564Y5390317D01*
X7422580Y5390314D01*
X8179405Y7011308D02*
X8146083D01*
X8162744D01*
Y6928001D01*
X8146083Y6911340D01*
X8129421D01*
X8112760Y6928001D01*
X8212728Y6911340D02*
X8246050D01*
X8229389D01*
Y7011308D01*
X8212728Y6994646D01*
X7353300Y7807960D02*
Y7907928D01*
X7403284D01*
X7419945Y7891266D01*
Y7857944D01*
X7403284Y7841283D01*
X7353300D01*
X7386623D02*
X7419945Y7807960D01*
X7453268Y7891266D02*
X7469929Y7907928D01*
X7503252D01*
X7519913Y7891266D01*
Y7874605D01*
X7503252Y7857944D01*
X7486590D01*
X7503252D01*
X7519913Y7841283D01*
Y7824621D01*
X7503252Y7807960D01*
X7469929D01*
X7453268Y7824621D01*
X6022340Y5560968D02*
Y5461000D01*
X6072324D01*
X6088985Y5477661D01*
Y5544306D01*
X6072324Y5560968D01*
X6022340D01*
X7097365Y7896346D02*
X7080704Y7913008D01*
X7047381D01*
X7030720Y7896346D01*
Y7829701D01*
X7047381Y7813040D01*
X7080704D01*
X7097365Y7829701D01*
X7130688Y7813040D02*
X7164010D01*
X7147349D01*
Y7913008D01*
X7130688Y7896346D01*
X5948680Y6455048D02*
Y6355080D01*
X5998664D01*
X6015325Y6371741D01*
Y6388403D01*
X5998664Y6405064D01*
X5948680D01*
X5998664D01*
X6015325Y6421725D01*
Y6438386D01*
X5998664Y6455048D01*
X5948680D01*
X6048648Y6355080D02*
X6081970D01*
X6065309D01*
Y6455048D01*
X6048648Y6438386D01*
%TF.MD5,0e79c7b6a87fc0bb6a4d2ed061b6caa4*%
M02*
