%TF.GenerationSoftware,Altium Limited,Altium Designer,24.10.1 (45)*%
G04 Layer_Color=16711935*
%FSLAX45Y45*%
%MOMM*%
%TF.SameCoordinates,B7086401-7AB7-4448-8119-44CCD126B3FB*%
%TF.FilePolarity,Positive*%
%TF.FileFunction,Other,Top_Assembly*%
%TF.Part,Single*%
G01*
G75*
%TA.AperFunction,NonConductor*%
%ADD25C,0.20000*%
%ADD28C,0.10000*%
D25*
X4957100Y5697400D02*
Y5947400D01*
X4847100Y5697400D02*
X4957100D01*
X4847100D02*
Y5947400D01*
X4957100D01*
D28*
X6347800Y7591800D02*
X6402799D01*
X6347800Y7696800D02*
X6402799D01*
X6347800Y7591800D02*
Y7696800D01*
X6402799Y7591800D02*
Y7696800D01*
X6415100Y7152700D02*
Y7207700D01*
X6310100Y7152700D02*
Y7207700D01*
Y7152700D02*
X6415100D01*
X6310100Y7207700D02*
X6415100D01*
X4849600Y5388500D02*
Y5443500D01*
X4954600Y5388500D02*
Y5443500D01*
X4849600D02*
X4954600D01*
X4849600Y5388500D02*
X4954600D01*
X5039700Y5604800D02*
X5094699D01*
X5039700Y5709800D02*
X5094699D01*
X5039700Y5604800D02*
Y5709800D01*
X5094699Y5604800D02*
Y5709800D01*
X6779600Y7696800D02*
X6834600D01*
X6779600Y7591800D02*
X6834600D01*
Y7696800D01*
X6779600Y7591800D02*
Y7696800D01*
X7249500Y5886500D02*
X7304500D01*
X7249500Y5781500D02*
X7304500D01*
Y5886500D01*
X7249500Y5781500D02*
Y5886500D01*
X7631600Y5861100D02*
X7686600D01*
X7631600Y5756100D02*
X7686600D01*
Y5861100D01*
X7631600Y5756100D02*
Y5861100D01*
X7351100Y7689900D02*
X7406100D01*
X7351100Y7584900D02*
X7406100D01*
Y7689900D01*
X7351100Y7584900D02*
Y7689900D01*
X7033600D02*
X7088599D01*
X7033600Y7584900D02*
X7088599D01*
Y7689900D01*
X7033600Y7584900D02*
Y7689900D01*
%TF.MD5,f0f34a4bf23496f80f32ccd4727de950*%
M02*
