%TF.GenerationSoftware,Altium Limited,Altium Designer,24.10.1 (45)*%
G04 Layer_Color=8388736*
%FSLAX45Y45*%
%MOMM*%
%TF.SameCoordinates,A4C5ECB5-41BF-4DFD-91FD-69217BF74453*%
%TF.FilePolarity,Negative*%
%TF.FileFunction,Soldermask,Top*%
%TF.Part,Single*%
G01*
G75*
%TA.AperFunction,SMDPad,CuDef*%
%ADD16R,0.80000X0.80000*%
%ADD30R,0.75320X0.75320*%
%ADD31R,0.75320X0.75320*%
%ADD32R,1.20320X0.80320*%
%ADD33R,2.20320X0.90320*%
%TA.AperFunction,ConnectorPad*%
%ADD34R,2.00320X2.40320*%
%TA.AperFunction,SMDPad,CuDef*%
G04:AMPARAMS|DCode=35|XSize=1.3432mm|YSize=1.8332mm|CornerRadius=0.2441mm|HoleSize=0mm|Usage=FLASHONLY|Rotation=180.000|XOffset=0mm|YOffset=0mm|HoleType=Round|Shape=RoundedRectangle|*
%AMROUNDEDRECTD35*
21,1,1.34320,1.34500,0,0,180.0*
21,1,0.85500,1.83320,0,0,180.0*
1,1,0.48820,-0.42750,0.67250*
1,1,0.48820,0.42750,0.67250*
1,1,0.48820,0.42750,-0.67250*
1,1,0.48820,-0.42750,-0.67250*
%
%ADD35ROUNDEDRECTD35*%
%ADD36R,0.82320X0.82320*%
%ADD37R,0.95320X1.65320*%
%ADD38R,0.90320X2.02820*%
%TA.AperFunction,ComponentPad*%
%ADD39C,0.85320*%
%ADD40C,4.65820*%
%ADD41C,2.00320*%
%TA.AperFunction,ViaPad*%
%ADD42C,1.05320*%
D16*
X3848100Y2769800D02*
D03*
Y2919800D02*
D03*
X4127500Y5703500D02*
D03*
Y5853500D02*
D03*
D30*
X5232400Y4298400D02*
D03*
Y4388400D02*
D03*
X4127500Y6025600D02*
D03*
Y6115600D02*
D03*
D31*
X5353600Y2921000D02*
D03*
X5263600D02*
D03*
D32*
X4934600Y6032500D02*
D03*
X5174600Y6128000D02*
D03*
Y5937000D02*
D03*
D33*
X2895600Y6136600D02*
D03*
X3495600D02*
D03*
X2895600Y5816600D02*
D03*
X3495600D02*
D03*
X2895600Y5596600D02*
D03*
X3495600D02*
D03*
X2895600Y5376600D02*
D03*
X3495600D02*
D03*
D34*
X3828900Y3365700D02*
D03*
X3538900Y4165700D02*
D03*
X3828900D02*
D03*
D35*
X5703400Y2908300D02*
D03*
X6031400D02*
D03*
D36*
X4076700Y2916200D02*
D03*
Y2824200D02*
D03*
D37*
X4698300Y2921000D02*
D03*
X4928300D02*
D03*
D38*
X5918200Y4204300D02*
D03*
X6045200D02*
D03*
X6172200D02*
D03*
X6299200D02*
D03*
X6426200D02*
D03*
X6553200D02*
D03*
X6680200D02*
D03*
Y3491900D02*
D03*
X6553200D02*
D03*
X6426200D02*
D03*
X6299200D02*
D03*
X6172200D02*
D03*
X6045200D02*
D03*
X5918200D02*
D03*
D39*
X3038900Y3495700D02*
D03*
Y3895700D02*
D03*
D40*
X7249100Y5824400D02*
D03*
X6089100D02*
D03*
D41*
X6969100Y4724400D02*
D03*
X6769100D02*
D03*
X6569100D02*
D03*
X7169100D02*
D03*
X6169100D02*
D03*
X6369100D02*
D03*
D42*
X4457700Y2895600D02*
D03*
X3505200Y4597400D02*
D03*
X6362700Y2908300D02*
D03*
X6311900Y4445000D02*
D03*
X5562600Y6299200D02*
D03*
%TF.MD5,f5bb92853ddaa4854ff614f1db8baede*%
M02*
