%TF.GenerationSoftware,Altium Limited,Altium Designer,24.10.1 (45)*%
G04 Layer_Color=32768*
%FSLAX45Y45*%
%MOMM*%
%TF.SameCoordinates,B7086401-7AB7-4448-8119-44CCD126B3FB*%
%TF.FilePolarity,Positive*%
%TF.FileFunction,Other,Top_Designator*%
%TF.Part,Single*%
G01*
G75*
%TA.AperFunction,NonConductor*%
%ADD44C,0.03825*%
D44*
X6387795Y7623473D02*
X6362803D01*
Y7635969D01*
X6366969Y7640135D01*
X6375299D01*
X6379465Y7635969D01*
Y7623473D01*
Y7631804D02*
X6387795Y7640135D01*
X6362803Y7665126D02*
Y7648465D01*
X6375299D01*
X6371134Y7656796D01*
Y7660961D01*
X6375299Y7665126D01*
X6383630D01*
X6387795Y7660961D01*
Y7652631D01*
X6383630Y7648465D01*
X6366765Y7171869D02*
X6370930Y7167704D01*
X6379260D01*
X6383426Y7171869D01*
Y7188530D01*
X6379260Y7192696D01*
X6370930D01*
X6366765Y7188530D01*
X6341773Y7192696D02*
X6358434D01*
X6341773Y7176034D01*
Y7171869D01*
X6345938Y7167704D01*
X6354268D01*
X6358434Y7171869D01*
X4881273Y5403504D02*
Y5428496D01*
X4893769D01*
X4897934Y5424331D01*
Y5416000D01*
X4893769Y5411835D01*
X4881273D01*
X4889604D02*
X4897934Y5403504D01*
X4918761D02*
Y5428496D01*
X4906265Y5416000D01*
X4922926D01*
X5079695Y5640639D02*
X5054704D01*
Y5653135D01*
X5058869Y5657300D01*
X5067199D01*
X5071365Y5653135D01*
Y5640639D01*
Y5648969D02*
X5079695Y5657300D01*
Y5665631D02*
Y5673961D01*
Y5669796D01*
X5054704D01*
X5058869Y5665631D01*
X6794604Y7665126D02*
X6819595D01*
Y7652630D01*
X6815430Y7648465D01*
X6807100D01*
X6802934Y7652630D01*
Y7665126D01*
Y7656795D02*
X6794604Y7648465D01*
X6819595Y7623473D02*
X6815430Y7631804D01*
X6807100Y7640134D01*
X6798769D01*
X6794604Y7635969D01*
Y7627638D01*
X6798769Y7623473D01*
X6802934D01*
X6807100Y7627638D01*
Y7640134D01*
X7264504Y5854826D02*
X7289495D01*
Y5842330D01*
X7285330Y5838165D01*
X7277000D01*
X7272834Y5842330D01*
Y5854826D01*
Y5846495D02*
X7264504Y5838165D01*
Y5813173D02*
Y5829834D01*
X7281165Y5813173D01*
X7285330D01*
X7289495Y5817338D01*
Y5825669D01*
X7285330Y5829834D01*
X7646604Y5829426D02*
X7671596D01*
Y5816930D01*
X7667430Y5812765D01*
X7659100D01*
X7654935Y5816930D01*
Y5829426D01*
Y5821096D02*
X7646604Y5812765D01*
X7671596Y5804434D02*
Y5787773D01*
X7667430D01*
X7650769Y5804434D01*
X7646604D01*
X7366104Y7658226D02*
X7391096D01*
Y7645730D01*
X7386930Y7641565D01*
X7378600D01*
X7374435Y7645730D01*
Y7658226D01*
Y7649896D02*
X7366104Y7641565D01*
X7386930Y7633234D02*
X7391096Y7629069D01*
Y7620738D01*
X7386930Y7616573D01*
X7382765D01*
X7378600Y7620738D01*
Y7624904D01*
Y7620738D01*
X7374435Y7616573D01*
X7370269D01*
X7366104Y7620738D01*
Y7629069D01*
X7370269Y7633234D01*
X7069430Y7637400D02*
X7073596Y7641565D01*
Y7649896D01*
X7069430Y7654061D01*
X7052769D01*
X7048604Y7649896D01*
Y7641565D01*
X7052769Y7637400D01*
X7048604Y7629069D02*
Y7620738D01*
Y7624904D01*
X7073596D01*
X7069430Y7629069D01*
%TF.MD5,565cbc7eec159f5907af68e2e668db70*%
M02*
