%TF.GenerationSoftware,Altium Limited,Altium Designer,24.10.1 (45)*%
G04 Layer_Physical_Order=1*
G04 Layer_Color=255*
%FSLAX45Y45*%
%MOMM*%
%TF.SameCoordinates,B7086401-7AB7-4448-8119-44CCD126B3FB*%
%TF.FilePolarity,Positive*%
%TF.FileFunction,Copper,L1,Top,Signal*%
%TF.Part,Single*%
G01*
G75*
%TA.AperFunction,SMDPad,CuDef*%
%ADD10R,2.00000X0.70000*%
%ADD11R,0.55000X0.55000*%
%ADD12R,0.62000X0.62000*%
%ADD13R,0.80000X0.80000*%
%ADD14R,0.55000X0.55000*%
%ADD15R,1.00000X0.60000*%
G04:AMPARAMS|DCode=16|XSize=1.14mm|YSize=1.63mm|CornerRadius=0.1425mm|HoleSize=0mm|Usage=FLASHONLY|Rotation=0.000|XOffset=0mm|YOffset=0mm|HoleType=Round|Shape=RoundedRectangle|*
%AMROUNDEDRECTD16*
21,1,1.14000,1.34500,0,0,0.0*
21,1,0.85500,1.63000,0,0,0.0*
1,1,0.28500,0.42750,-0.67250*
1,1,0.28500,-0.42750,-0.67250*
1,1,0.28500,-0.42750,0.67250*
1,1,0.28500,0.42750,0.67250*
%
%ADD16ROUNDEDRECTD16*%
%TA.AperFunction,ConnectorPad*%
%ADD17R,2.20000X1.80000*%
%TA.AperFunction,SMDPad,CuDef*%
%ADD18R,0.62000X0.62000*%
%TA.AperFunction,ConnectorPad*%
%ADD19R,0.70000X1.82500*%
%TA.AperFunction,Conductor*%
%ADD20C,0.25400*%
%TA.AperFunction,ComponentPad*%
%ADD21C,4.45500*%
%ADD22C,1.80000*%
%ADD23C,0.65000*%
%TA.AperFunction,ViaPad*%
%ADD24C,1.27000*%
D10*
X3997300Y5549100D02*
D03*
X4597300D02*
D03*
X3997300Y5869100D02*
D03*
X4597300D02*
D03*
X3997300Y6089100D02*
D03*
X4597300D02*
D03*
X3997300Y6309100D02*
D03*
X4597300D02*
D03*
D11*
X6375300Y7599300D02*
D03*
Y7689300D02*
D03*
X5067200Y5612300D02*
D03*
Y5702300D02*
D03*
X6807100Y7689300D02*
D03*
Y7599300D02*
D03*
X7277000Y5879000D02*
D03*
Y5789000D02*
D03*
X7659100Y5853600D02*
D03*
Y5763600D02*
D03*
X7378600Y7682400D02*
D03*
Y7592400D02*
D03*
D12*
X6408600Y7180200D02*
D03*
X6316600D02*
D03*
D13*
X4902100Y5897400D02*
D03*
Y5747400D02*
D03*
D14*
X4857100Y5416000D02*
D03*
X4947100D02*
D03*
D15*
X5206900Y5543000D02*
D03*
X5446900Y5638500D02*
D03*
Y5447500D02*
D03*
D16*
X7277000Y5453000D02*
D03*
X6949000D02*
D03*
X6629300Y5478400D02*
D03*
X6301300D02*
D03*
D17*
X9102400Y6599700D02*
D03*
X8302400Y6309700D02*
D03*
Y6599700D02*
D03*
D18*
X7061100Y7683400D02*
D03*
Y7591400D02*
D03*
D19*
X6858000Y5447700D02*
D03*
X6731000D02*
D03*
X6604000D02*
D03*
X6477000D02*
D03*
X6350000D02*
D03*
X6223000D02*
D03*
X6096000D02*
D03*
Y6160100D02*
D03*
X6223000D02*
D03*
X6350000D02*
D03*
X6477000D02*
D03*
X6604000D02*
D03*
X6731000D02*
D03*
X6858000D02*
D03*
D20*
X4947100Y5416000D02*
X5341264D01*
X5349364Y5407900D01*
X4503763Y6438900D02*
X4876800D01*
X3859200Y5498318D02*
Y6139882D01*
X3955318Y6236000D01*
X3859200Y5498318D02*
X3881518Y5476000D01*
X4718681Y5481600D02*
X5028252D01*
X4713081Y5476000D02*
X4718681Y5481600D01*
X5272681Y5474900D02*
X5334080Y5536298D01*
X5028252Y5481600D02*
X5034952Y5474900D01*
X5334080Y5659561D02*
X5414918Y5740400D01*
X5334080Y5536298D02*
Y5659561D01*
X5414918Y5740400D02*
X5664200D01*
X3881518Y5476000D02*
X4713081D01*
X5349364Y5407900D02*
X5357464Y5416000D01*
X5034952Y5474900D02*
X5272681D01*
X5357464Y5416000D02*
X5395399D01*
X3955318Y6236000D02*
X4300863D01*
X4503763Y6438900D01*
X4378650Y5622200D02*
X4539281D01*
X4947199Y5702300D02*
X5067200D01*
X4305550Y5549100D02*
X4378650Y5622200D01*
X4902100Y5747400D02*
X4947199Y5702300D01*
X4539281Y5622200D02*
X4814481Y5897400D01*
X3997300Y5549100D02*
X4305550D01*
X4662300D02*
X4725500Y5612300D01*
X4597300Y5549100D02*
X4662300D01*
X4725500Y5612300D02*
X5067200D01*
X7233173Y6356873D02*
X7315200Y6438900D01*
X7233173Y6293373D02*
Y6356873D01*
X7137400Y6197600D02*
X7233173Y6293373D01*
X6771550Y6197600D02*
X7137400D01*
X6426100Y5795900D02*
Y5852150D01*
X6771550Y6197600D01*
X7315200Y6438900D02*
X7543800Y6210300D01*
X7772400D01*
X7315200Y6438900D02*
X7645400Y6769100D01*
Y7998821D01*
X6590819Y8013700D02*
X7630521D01*
X7645400Y7998821D01*
X6309700Y7732580D02*
X6590819Y8013700D01*
X6309700Y7187100D02*
X6316600Y7180200D01*
X6309700Y7187100D02*
Y7732580D01*
X6807100Y6691549D02*
Y7599300D01*
X7061100Y6818549D02*
Y7591400D01*
X6680100Y6564549D02*
X6807100Y6691549D01*
X7061100Y7683400D02*
X7099300Y7721600D01*
X7058150Y7686350D02*
X7061100Y7683400D01*
X7099300Y7721600D02*
X7339399D01*
X7378600Y7682400D01*
X6807100Y6564549D02*
X7061100Y6818549D01*
X5871450Y5897400D02*
X6426100Y6452050D01*
X6949000Y5453000D02*
Y5477500D01*
X6807100Y5619400D02*
X6949000Y5477500D01*
X7013434Y5333400D02*
X7133034Y5453000D01*
X6837466Y5380500D02*
X6884566Y5333400D01*
X6837466Y5380500D02*
Y5431300D01*
X6884566Y5333400D02*
X7013434D01*
X6807100Y5619400D02*
Y5795900D01*
X6790366Y5478400D02*
X6837466Y5431300D01*
X6680100Y5852150D02*
X6753200Y5925250D01*
X7230750D02*
X7277000Y5879000D01*
X6680100Y5795900D02*
Y5852150D01*
X6753200Y5925250D02*
X7230750D01*
X5562300Y5638500D02*
X5664200Y5740400D01*
X5446900Y5638500D02*
X5562300D01*
X5119200Y5560300D02*
X5189600D01*
X5206900Y5543000D01*
X5067200Y5612300D02*
X5119200Y5560300D01*
X6408600Y7180200D02*
X6440900Y7212500D01*
Y7642581D01*
X6408981Y7674500D02*
X6440900Y7642581D01*
X5942649Y7175000D02*
X6553100Y6564549D01*
X5664200Y5740400D02*
X5738050Y5666550D01*
X6352999D01*
X6426100Y5739650D01*
Y5795900D01*
X7133034Y5453000D02*
X7277000D01*
X6629300Y5478400D02*
X6790366D01*
X7277000Y5453000D02*
X7302400Y5478400D01*
Y5763600D01*
X7659100D01*
Y5853600D02*
X7673900Y5838800D01*
X7692781D01*
X7659100Y6097000D02*
X7772400Y6210300D01*
X7659100Y5853600D02*
Y6097000D01*
X7871800Y6309700D02*
X8302400D01*
X7772400Y6210300D02*
X7871800Y6309700D01*
X4526000Y6895000D02*
X4876800Y6544200D01*
Y6438900D02*
Y6544200D01*
X4526000Y6895000D02*
Y8055000D01*
X4814481Y5897400D02*
X4902100D01*
X5871450D01*
X6426100Y6452050D02*
Y6508300D01*
X6375300Y7689300D02*
X6390100Y7674500D01*
X6408981D01*
X6375300Y7689300D02*
X6807100D01*
X6810050Y7686350D02*
X7058150D01*
X6807100Y7689300D02*
X6810050Y7686350D01*
X6680100Y6508300D02*
Y6564549D01*
X6807100Y6508300D02*
Y6564549D01*
X7378100Y7591900D02*
X7378600Y7592400D01*
X7061600Y7591900D02*
X7378100D01*
X7061100Y7591400D02*
X7061600Y7591900D01*
X5395399Y5416000D02*
X5426899Y5447500D01*
X5446900D01*
X6345482Y5532950D02*
X6473400D01*
X6680100Y5739650D02*
Y5795900D01*
X6301300Y5478400D02*
Y5488768D01*
X6345482Y5532950D01*
X6473400D02*
X6680100Y5739650D01*
X5626000Y7175000D02*
X5942649D01*
X6553100Y6508300D02*
Y6564549D01*
D21*
X4526000Y8055000D02*
D03*
Y6895000D02*
D03*
D22*
X5626000Y7775000D02*
D03*
Y7575000D02*
D03*
Y7375000D02*
D03*
Y7975000D02*
D03*
Y6975000D02*
D03*
Y7175000D02*
D03*
D23*
X8972400Y5809700D02*
D03*
X8572400D02*
D03*
D24*
X7315200Y6438900D02*
D03*
X7137400Y6197600D02*
D03*
X7772400Y6210300D02*
D03*
X5664200Y5740400D02*
D03*
X4876800Y6438900D02*
D03*
%TF.MD5,c306a6aafae957bd39601252ada97b4a*%
M02*
