%TF.GenerationSoftware,Altium Limited,Altium Designer,24.10.1 (45)*%
G04 Layer_Color=32768*
%FSLAX45Y45*%
%MOMM*%
%TF.SameCoordinates,B7086401-7AB7-4448-8119-44CCD126B3FB*%
%TF.FilePolarity,Positive*%
%TF.FileFunction,Other,Mechanical_15*%
%TF.Part,Single*%
G01*
G75*
%TA.AperFunction,NonConductor*%
%ADD25C,0.20000*%
%ADD28C,0.10000*%
%ADD43C,0.05000*%
D25*
X3886000Y6860000D02*
X5436000D01*
X3886000D02*
Y8090000D01*
X5436000D01*
Y6860000D02*
Y8090000D01*
X9222400Y5409700D02*
Y6659700D01*
X8322400D02*
X9222400D01*
X8322400Y5409700D02*
Y6659700D01*
Y5409700D02*
X9222400D01*
D28*
X5296400Y5397000D02*
X5391900Y5492500D01*
Y5397000D02*
Y5689000D01*
X5261900D02*
X5391900D01*
X5261900Y5397000D02*
Y5689000D01*
Y5397000D02*
X5391900D01*
X6860000Y6068900D02*
X6987000Y5941900D01*
X5967000Y6068900D02*
X6987000D01*
X5967000Y5538900D02*
Y6068900D01*
Y5538900D02*
X6987000D01*
Y6068900D01*
D43*
X3872300Y5404100D02*
X4722300D01*
X3872300D02*
Y6454100D01*
X4722300D01*
Y5404100D02*
Y6454100D01*
X6867000Y5346500D02*
Y5559500D01*
X7359000D01*
Y5346500D02*
Y5559500D01*
X6867000Y5346500D02*
X7359000D01*
X6219300Y5371900D02*
Y5584900D01*
X6711300D01*
Y5371900D02*
Y5584900D01*
X6219300Y5371900D02*
X6711300D01*
%TF.MD5,833bbe181869d30a8c0202c29fcd1256*%
M02*
