%TF.GenerationSoftware,Altium Limited,Altium Designer,24.10.1 (45)*%
G04 Layer_Physical_Order=2*
G04 Layer_Color=16711680*
%FSLAX45Y45*%
%MOMM*%
%TF.SameCoordinates,A4C5ECB5-41BF-4DFD-91FD-69217BF74453*%
%TF.FilePolarity,Positive*%
%TF.FileFunction,Copper,L2,Bot,Signal*%
%TF.Part,Single*%
G01*
G75*
%TA.AperFunction,ComponentPad*%
%ADD21C,0.65000*%
%ADD22C,4.45500*%
%ADD23C,1.80000*%
%TA.AperFunction,ViaPad*%
%ADD24C,0.85000*%
G36*
X7391400Y6426200D02*
Y6048212D01*
X7368999Y6036239D01*
X7364085Y6039522D01*
X7319908Y6057821D01*
X7273009Y6067150D01*
X7225191D01*
X7178292Y6057821D01*
X7134115Y6039522D01*
X7094356Y6012956D01*
X7060544Y5979144D01*
X7033978Y5939385D01*
X7015679Y5895208D01*
X7006350Y5848309D01*
Y5800491D01*
X7015679Y5753593D01*
X7033978Y5709415D01*
X7060544Y5669656D01*
X7094356Y5635844D01*
X7134115Y5609278D01*
X7178292Y5590979D01*
X7225191Y5581650D01*
X7273009D01*
X7319908Y5590979D01*
X7364085Y5609278D01*
X7368999Y5612562D01*
X7391400Y5600588D01*
Y2685084D01*
X7373318Y2667246D01*
X2735759Y2730256D01*
X2730500Y2743200D01*
Y6438900D01*
X7386139D01*
X7391400Y6426200D01*
D02*
G37*
%LPC*%
G36*
X5575300Y6366092D02*
Y6311900D01*
X5629492D01*
X5625873Y6325408D01*
X5616934Y6340892D01*
X5604292Y6353534D01*
X5588808Y6362473D01*
X5575300Y6366092D01*
D02*
G37*
G36*
X5549900D02*
X5536392Y6362473D01*
X5520908Y6353534D01*
X5508266Y6340892D01*
X5499327Y6325408D01*
X5495708Y6311900D01*
X5549900D01*
Y6366092D01*
D02*
G37*
G36*
X5629492Y6286500D02*
X5575300D01*
Y6232308D01*
X5588808Y6235927D01*
X5604292Y6244866D01*
X5616934Y6257508D01*
X5625873Y6272992D01*
X5629492Y6286500D01*
D02*
G37*
G36*
X5549900D02*
X5495708D01*
X5499327Y6272992D01*
X5508266Y6257508D01*
X5520908Y6244866D01*
X5536392Y6235927D01*
X5549900Y6232308D01*
Y6286500D01*
D02*
G37*
G36*
X6113009Y6067150D02*
X6065191D01*
X6018293Y6057821D01*
X5974115Y6039522D01*
X5934356Y6012956D01*
X5900544Y5979144D01*
X5873978Y5939385D01*
X5855679Y5895208D01*
X5846350Y5848309D01*
Y5800491D01*
X5855679Y5753593D01*
X5873978Y5709415D01*
X5900544Y5669656D01*
X5934356Y5635844D01*
X5974115Y5609278D01*
X6018293Y5590979D01*
X6065191Y5581650D01*
X6113009D01*
X6159908Y5590979D01*
X6204085Y5609278D01*
X6243844Y5635844D01*
X6277656Y5669656D01*
X6304222Y5709415D01*
X6322521Y5753593D01*
X6331850Y5800491D01*
Y5848309D01*
X6322521Y5895208D01*
X6304222Y5939385D01*
X6277656Y5979144D01*
X6243844Y6012956D01*
X6204085Y6039522D01*
X6159908Y6057821D01*
X6113009Y6067150D01*
D02*
G37*
G36*
X6356400Y4839800D02*
X6353907D01*
X6324557Y4831935D01*
X6298243Y4816743D01*
X6281689Y4800189D01*
X6270009Y4796268D01*
X6249762Y4799301D01*
X6236641Y4812422D01*
X6211558Y4826903D01*
X6183582Y4834400D01*
X6154618D01*
X6126642Y4826903D01*
X6101559Y4812422D01*
X6081078Y4791941D01*
X6066596Y4766858D01*
X6059100Y4738882D01*
Y4709918D01*
X6066596Y4681942D01*
X6081078Y4656859D01*
X6101559Y4636378D01*
X6126642Y4621897D01*
X6154618Y4614400D01*
X6183582D01*
X6211558Y4621897D01*
X6236641Y4636378D01*
X6249762Y4649499D01*
X6270009Y4652532D01*
X6281689Y4648611D01*
X6298243Y4632057D01*
X6324557Y4616865D01*
X6353907Y4609000D01*
X6356400D01*
Y4724400D01*
Y4839800D01*
D02*
G37*
G36*
X6384293D02*
X6381800D01*
Y4724400D01*
Y4609000D01*
X6384293D01*
X6413643Y4616865D01*
X6439957Y4632057D01*
X6456511Y4648611D01*
X6468191Y4652532D01*
X6488438Y4649499D01*
X6501559Y4636378D01*
X6526642Y4621897D01*
X6554618Y4614400D01*
X6583582D01*
X6611559Y4621897D01*
X6636642Y4636378D01*
X6653715Y4653452D01*
X6669100Y4655367D01*
X6684485Y4653452D01*
X6701559Y4636378D01*
X6726642Y4621897D01*
X6754618Y4614400D01*
X6783582D01*
X6811558Y4621897D01*
X6836641Y4636378D01*
X6853716Y4653452D01*
X6869100Y4655367D01*
X6884485Y4653452D01*
X6901559Y4636378D01*
X6926642Y4621897D01*
X6954618Y4614400D01*
X6983582D01*
X7011558Y4621897D01*
X7036642Y4636378D01*
X7053715Y4653452D01*
X7069100Y4655367D01*
X7084485Y4653452D01*
X7101559Y4636378D01*
X7126642Y4621897D01*
X7154618Y4614400D01*
X7183582D01*
X7211558Y4621897D01*
X7236641Y4636378D01*
X7257122Y4656859D01*
X7271603Y4681942D01*
X7279100Y4709918D01*
Y4738882D01*
X7271603Y4766858D01*
X7257122Y4791941D01*
X7236641Y4812422D01*
X7211558Y4826903D01*
X7183582Y4834400D01*
X7154618D01*
X7126642Y4826903D01*
X7101559Y4812422D01*
X7084485Y4795348D01*
X7069100Y4793433D01*
X7053715Y4795348D01*
X7036642Y4812422D01*
X7011558Y4826903D01*
X6983582Y4834400D01*
X6954618D01*
X6926642Y4826903D01*
X6901559Y4812422D01*
X6884485Y4795348D01*
X6869100Y4793433D01*
X6853716Y4795348D01*
X6836641Y4812422D01*
X6811558Y4826903D01*
X6783582Y4834400D01*
X6754618D01*
X6726642Y4826903D01*
X6701559Y4812422D01*
X6684485Y4795348D01*
X6669100Y4793433D01*
X6653715Y4795348D01*
X6636642Y4812422D01*
X6611559Y4826903D01*
X6583582Y4834400D01*
X6554618D01*
X6526642Y4826903D01*
X6501559Y4812422D01*
X6488438Y4799301D01*
X6468191Y4796268D01*
X6456511Y4800189D01*
X6439957Y4816743D01*
X6413643Y4831935D01*
X6384293Y4839800D01*
D02*
G37*
G36*
X3517900Y4664292D02*
Y4610100D01*
X3572092D01*
X3568473Y4623608D01*
X3559534Y4639092D01*
X3546892Y4651734D01*
X3531408Y4660673D01*
X3517900Y4664292D01*
D02*
G37*
G36*
X3492500D02*
X3478992Y4660673D01*
X3463508Y4651734D01*
X3450866Y4639092D01*
X3441927Y4623608D01*
X3438308Y4610100D01*
X3492500D01*
Y4664292D01*
D02*
G37*
G36*
X3572092Y4584700D02*
X3517900D01*
Y4530508D01*
X3531408Y4534127D01*
X3546892Y4543066D01*
X3559534Y4555708D01*
X3568473Y4571192D01*
X3572092Y4584700D01*
D02*
G37*
G36*
X3492500D02*
X3438308D01*
X3441927Y4571192D01*
X3450866Y4555708D01*
X3463508Y4543066D01*
X3478992Y4534127D01*
X3492500Y4530508D01*
Y4584700D01*
D02*
G37*
G36*
X6324600Y4511892D02*
Y4457700D01*
X6378792D01*
X6375173Y4471208D01*
X6366234Y4486692D01*
X6353592Y4499334D01*
X6338108Y4508273D01*
X6324600Y4511892D01*
D02*
G37*
G36*
X6299200D02*
X6285692Y4508273D01*
X6270208Y4499334D01*
X6257566Y4486692D01*
X6248627Y4471208D01*
X6245008Y4457700D01*
X6299200D01*
Y4511892D01*
D02*
G37*
G36*
X6378792Y4432300D02*
X6324600D01*
Y4378108D01*
X6338108Y4381727D01*
X6353592Y4390666D01*
X6366234Y4403308D01*
X6375173Y4418792D01*
X6378792Y4432300D01*
D02*
G37*
G36*
X6299200D02*
X6245008D01*
X6248627Y4418792D01*
X6257566Y4403308D01*
X6270208Y4390666D01*
X6285692Y4381727D01*
X6299200Y4378108D01*
Y4432300D01*
D02*
G37*
G36*
X3050090Y3980700D02*
X3027709D01*
X3006091Y3974907D01*
X2986709Y3963717D01*
X2970883Y3947891D01*
X2959693Y3928509D01*
X2953900Y3906891D01*
Y3884510D01*
X2959693Y3862891D01*
X2970883Y3843509D01*
X2986709Y3827683D01*
X3006091Y3816493D01*
X3027709Y3810700D01*
X3050090D01*
X3071709Y3816493D01*
X3091091Y3827683D01*
X3106917Y3843509D01*
X3118107Y3862891D01*
X3123900Y3884510D01*
Y3906891D01*
X3118107Y3928509D01*
X3106917Y3947891D01*
X3091091Y3963717D01*
X3071709Y3974907D01*
X3050090Y3980700D01*
D02*
G37*
G36*
Y3580700D02*
X3027709D01*
X3006091Y3574907D01*
X2986709Y3563717D01*
X2970883Y3547891D01*
X2959693Y3528509D01*
X2953900Y3506890D01*
Y3484509D01*
X2959693Y3462891D01*
X2970883Y3443509D01*
X2986709Y3427683D01*
X3006091Y3416493D01*
X3027709Y3410700D01*
X3050090D01*
X3071709Y3416493D01*
X3091091Y3427683D01*
X3106917Y3443509D01*
X3118107Y3462891D01*
X3123900Y3484509D01*
Y3506890D01*
X3118107Y3528509D01*
X3106917Y3547891D01*
X3091091Y3563717D01*
X3071709Y3574907D01*
X3050090Y3580700D01*
D02*
G37*
G36*
X6375400Y2975192D02*
Y2921000D01*
X6429592D01*
X6425973Y2934508D01*
X6417034Y2949992D01*
X6404392Y2962634D01*
X6388908Y2971573D01*
X6375400Y2975192D01*
D02*
G37*
G36*
X6350000D02*
X6336492Y2971573D01*
X6321008Y2962634D01*
X6308366Y2949992D01*
X6299427Y2934508D01*
X6295808Y2921000D01*
X6350000D01*
Y2975192D01*
D02*
G37*
G36*
X4470400Y2962492D02*
Y2908300D01*
X4524592D01*
X4520973Y2921808D01*
X4512034Y2937292D01*
X4499392Y2949934D01*
X4483908Y2958873D01*
X4470400Y2962492D01*
D02*
G37*
G36*
X4445000D02*
X4431492Y2958873D01*
X4416008Y2949934D01*
X4403366Y2937292D01*
X4394427Y2921808D01*
X4390808Y2908300D01*
X4445000D01*
Y2962492D01*
D02*
G37*
G36*
X6429592Y2895600D02*
X6375400D01*
Y2841408D01*
X6388908Y2845027D01*
X6404392Y2853966D01*
X6417034Y2866608D01*
X6425973Y2882092D01*
X6429592Y2895600D01*
D02*
G37*
G36*
X6350000D02*
X6295808D01*
X6299427Y2882092D01*
X6308366Y2866608D01*
X6321008Y2853966D01*
X6336492Y2845027D01*
X6350000Y2841408D01*
Y2895600D01*
D02*
G37*
G36*
X4524592Y2882900D02*
X4470400D01*
Y2828708D01*
X4483908Y2832327D01*
X4499392Y2841266D01*
X4512034Y2853908D01*
X4520973Y2869392D01*
X4524592Y2882900D01*
D02*
G37*
G36*
X4445000D02*
X4390808D01*
X4394427Y2869392D01*
X4403366Y2853908D01*
X4416008Y2841266D01*
X4431492Y2832327D01*
X4445000Y2828708D01*
Y2882900D01*
D02*
G37*
%LPD*%
D21*
X3038900Y3495700D02*
D03*
Y3895700D02*
D03*
D22*
X7249100Y5824400D02*
D03*
X6089100D02*
D03*
D23*
X6969100Y4724400D02*
D03*
X6769100D02*
D03*
X6569100D02*
D03*
X7169100D02*
D03*
X6169100D02*
D03*
X6369100D02*
D03*
D24*
X4457700Y2895600D02*
D03*
X3505200Y4597400D02*
D03*
X6362700Y2908300D02*
D03*
X6311900Y4445000D02*
D03*
X5562600Y6299200D02*
D03*
%TF.MD5,5062ab29898c222dcf91ad6d7673742f*%
M02*
