%TF.GenerationSoftware,Altium Limited,Altium Designer,24.10.1 (45)*%
G04 Layer_Physical_Order=2*
G04 Layer_Color=16711680*
%FSLAX45Y45*%
%MOMM*%
%TF.SameCoordinates,B7086401-7AB7-4448-8119-44CCD126B3FB*%
%TF.FilePolarity,Positive*%
%TF.FileFunction,Copper,L2,Bot,Signal*%
%TF.Part,Single*%
G01*
G75*
%TA.AperFunction,ComponentPad*%
%ADD21C,4.45500*%
%ADD22C,1.80000*%
%ADD23C,0.65000*%
%TA.AperFunction,ViaPad*%
%ADD24C,1.27000*%
G36*
X9347200Y5676900D02*
Y5308600D01*
X3568700D01*
Y8343900D01*
X9347200D01*
Y5676900D01*
D02*
G37*
%LPC*%
G36*
X4550440Y8303150D02*
X4501559D01*
X4453617Y8293614D01*
X4408457Y8274908D01*
X4367813Y8247750D01*
X4333249Y8213186D01*
X4306092Y8172543D01*
X4287386Y8127383D01*
X4277850Y8079441D01*
Y8030559D01*
X4287386Y7982617D01*
X4306092Y7937457D01*
X4333249Y7896814D01*
X4367813Y7862249D01*
X4408457Y7835092D01*
X4453617Y7816386D01*
X4501559Y7806850D01*
X4550440D01*
X4598382Y7816386D01*
X4643543Y7835092D01*
X4684186Y7862249D01*
X4718750Y7896814D01*
X4745907Y7937457D01*
X4764613Y7982617D01*
X4774149Y8030559D01*
Y8079441D01*
X4764613Y8127383D01*
X4745907Y8172543D01*
X4718750Y8213186D01*
X4684186Y8247750D01*
X4643543Y8274908D01*
X4598382Y8293614D01*
X4550440Y8303150D01*
D02*
G37*
G36*
X5641192Y8090400D02*
X5610807D01*
X5581457Y8082535D01*
X5555143Y8067343D01*
X5533657Y8045857D01*
X5518464Y8019543D01*
X5510600Y7990193D01*
Y7959807D01*
X5518464Y7930457D01*
X5533657Y7904143D01*
X5546257Y7891542D01*
X5552331Y7875000D01*
X5546257Y7858457D01*
X5533657Y7845857D01*
X5518464Y7819543D01*
X5510600Y7790193D01*
Y7759807D01*
X5518464Y7730457D01*
X5533657Y7704143D01*
X5546257Y7691542D01*
X5552331Y7675000D01*
X5546257Y7658457D01*
X5533657Y7645857D01*
X5518464Y7619543D01*
X5510600Y7590193D01*
Y7559807D01*
X5518464Y7530457D01*
X5533657Y7504143D01*
X5546257Y7491542D01*
X5552331Y7475000D01*
X5546257Y7458458D01*
X5533657Y7445857D01*
X5518464Y7419543D01*
X5510600Y7390193D01*
Y7359807D01*
X5518464Y7330457D01*
X5533657Y7304143D01*
X5546257Y7291542D01*
X5552331Y7275000D01*
X5546257Y7258457D01*
X5533657Y7245857D01*
X5518464Y7219543D01*
X5510600Y7190193D01*
Y7159807D01*
X5518464Y7130457D01*
X5533657Y7104143D01*
X5546257Y7091542D01*
X5552331Y7075000D01*
X5546257Y7058457D01*
X5533657Y7045857D01*
X5518464Y7019542D01*
X5510600Y6990193D01*
Y6959807D01*
X5518464Y6930457D01*
X5533657Y6904143D01*
X5555143Y6882657D01*
X5581457Y6867464D01*
X5610807Y6859600D01*
X5641192D01*
X5670542Y6867464D01*
X5696857Y6882657D01*
X5718342Y6904143D01*
X5733535Y6930457D01*
X5741399Y6959807D01*
Y6990193D01*
X5733535Y7019542D01*
X5718342Y7045857D01*
X5705742Y7058457D01*
X5699668Y7075000D01*
X5705742Y7091542D01*
X5718342Y7104143D01*
X5733535Y7130457D01*
X5741399Y7159807D01*
Y7190193D01*
X5733535Y7219543D01*
X5718342Y7245857D01*
X5705742Y7258457D01*
X5699668Y7275000D01*
X5705742Y7291542D01*
X5718342Y7304143D01*
X5733535Y7330457D01*
X5741399Y7359807D01*
Y7390193D01*
X5733535Y7419543D01*
X5718342Y7445857D01*
X5705742Y7458458D01*
X5699668Y7475000D01*
X5705742Y7491542D01*
X5718342Y7504143D01*
X5733535Y7530457D01*
X5741399Y7559807D01*
Y7590193D01*
X5733535Y7619543D01*
X5718342Y7645857D01*
X5705742Y7658457D01*
X5699668Y7675000D01*
X5705742Y7691542D01*
X5718342Y7704143D01*
X5733535Y7730457D01*
X5741399Y7759807D01*
Y7790193D01*
X5733535Y7819543D01*
X5718342Y7845857D01*
X5705742Y7858457D01*
X5699668Y7875000D01*
X5705742Y7891542D01*
X5718342Y7904143D01*
X5733535Y7930457D01*
X5741399Y7959807D01*
Y7990193D01*
X5733535Y8019543D01*
X5718342Y8045857D01*
X5696857Y8067343D01*
X5670542Y8082535D01*
X5641192Y8090400D01*
D02*
G37*
G36*
X4550440Y7143150D02*
X4501559D01*
X4453617Y7133614D01*
X4408457Y7114908D01*
X4367813Y7087750D01*
X4333249Y7053186D01*
X4306092Y7012543D01*
X4287386Y6967383D01*
X4277850Y6919441D01*
Y6870559D01*
X4287386Y6822617D01*
X4306092Y6777457D01*
X4333249Y6736814D01*
X4367813Y6702249D01*
X4408457Y6675092D01*
X4453617Y6656386D01*
X4501559Y6646850D01*
X4550440D01*
X4598382Y6656386D01*
X4643543Y6675092D01*
X4684186Y6702249D01*
X4718750Y6736814D01*
X4745907Y6777457D01*
X4764613Y6822617D01*
X4774149Y6870559D01*
Y6919441D01*
X4764613Y6967383D01*
X4745907Y7012543D01*
X4718750Y7053186D01*
X4684186Y7087750D01*
X4643543Y7114908D01*
X4598382Y7133614D01*
X4550440Y7143150D01*
D02*
G37*
G36*
X7326904Y6527800D02*
X7303496D01*
X7280886Y6521742D01*
X7260614Y6510038D01*
X7244062Y6493486D01*
X7232358Y6473214D01*
X7226300Y6450604D01*
Y6427196D01*
X7232358Y6404586D01*
X7244062Y6384314D01*
X7260614Y6367762D01*
X7280886Y6356058D01*
X7303496Y6350000D01*
X7326904D01*
X7349514Y6356058D01*
X7369786Y6367762D01*
X7386338Y6384314D01*
X7398042Y6404586D01*
X7404100Y6427196D01*
Y6450604D01*
X7398042Y6473214D01*
X7386338Y6493486D01*
X7369786Y6510038D01*
X7349514Y6521742D01*
X7326904Y6527800D01*
D02*
G37*
G36*
X4888504D02*
X4865096D01*
X4842486Y6521742D01*
X4822214Y6510038D01*
X4805662Y6493486D01*
X4793958Y6473214D01*
X4787900Y6450604D01*
Y6427196D01*
X4793958Y6404586D01*
X4805662Y6384314D01*
X4822214Y6367762D01*
X4842486Y6356058D01*
X4865096Y6350000D01*
X4888504D01*
X4911114Y6356058D01*
X4931386Y6367762D01*
X4947938Y6384314D01*
X4959642Y6404586D01*
X4965700Y6427196D01*
Y6450604D01*
X4959642Y6473214D01*
X4947938Y6493486D01*
X4931386Y6510038D01*
X4911114Y6521742D01*
X4888504Y6527800D01*
D02*
G37*
G36*
X7784104Y6299200D02*
X7760696D01*
X7738086Y6293142D01*
X7717814Y6281438D01*
X7701262Y6264886D01*
X7689558Y6244614D01*
X7683500Y6222004D01*
Y6198596D01*
X7689558Y6175986D01*
X7701262Y6155714D01*
X7717814Y6139162D01*
X7738086Y6127458D01*
X7760696Y6121400D01*
X7784104D01*
X7806714Y6127458D01*
X7826986Y6139162D01*
X7843538Y6155714D01*
X7855242Y6175986D01*
X7861300Y6198596D01*
Y6222004D01*
X7855242Y6244614D01*
X7843538Y6264886D01*
X7826986Y6281438D01*
X7806714Y6293142D01*
X7784104Y6299200D01*
D02*
G37*
G36*
X7149104Y6286500D02*
X7125696D01*
X7103086Y6280442D01*
X7082814Y6268738D01*
X7066262Y6252186D01*
X7054558Y6231914D01*
X7048500Y6209304D01*
Y6185896D01*
X7054558Y6163286D01*
X7066262Y6143014D01*
X7082814Y6126462D01*
X7103086Y6114758D01*
X7125696Y6108700D01*
X7149104D01*
X7171714Y6114758D01*
X7191986Y6126462D01*
X7208538Y6143014D01*
X7220242Y6163286D01*
X7226300Y6185896D01*
Y6209304D01*
X7220242Y6231914D01*
X7208538Y6252186D01*
X7191986Y6268738D01*
X7171714Y6280442D01*
X7149104Y6286500D01*
D02*
G37*
G36*
X8980957Y5874700D02*
X8963842D01*
X8947311Y5870270D01*
X8932489Y5861713D01*
X8920387Y5849611D01*
X8911830Y5834789D01*
X8907400Y5818257D01*
Y5801142D01*
X8911830Y5784611D01*
X8920387Y5769789D01*
X8932489Y5757687D01*
X8947311Y5749130D01*
X8963842Y5744700D01*
X8980957D01*
X8997489Y5749130D01*
X9012311Y5757687D01*
X9024413Y5769789D01*
X9032970Y5784611D01*
X9037400Y5801142D01*
Y5818257D01*
X9032970Y5834789D01*
X9024413Y5849611D01*
X9012311Y5861713D01*
X8997489Y5870270D01*
X8980957Y5874700D01*
D02*
G37*
G36*
X8580957D02*
X8563842D01*
X8547311Y5870270D01*
X8532489Y5861713D01*
X8520387Y5849611D01*
X8511830Y5834789D01*
X8507400Y5818257D01*
Y5801142D01*
X8511830Y5784611D01*
X8520387Y5769789D01*
X8532489Y5757687D01*
X8547311Y5749130D01*
X8563842Y5744700D01*
X8580957D01*
X8597489Y5749130D01*
X8612310Y5757687D01*
X8624413Y5769789D01*
X8632970Y5784611D01*
X8637400Y5801142D01*
Y5818257D01*
X8632970Y5834789D01*
X8624413Y5849611D01*
X8612310Y5861713D01*
X8597489Y5870270D01*
X8580957Y5874700D01*
D02*
G37*
G36*
X5675904Y5829300D02*
X5652496D01*
X5629886Y5823242D01*
X5609614Y5811538D01*
X5593062Y5794986D01*
X5581358Y5774714D01*
X5575300Y5752104D01*
Y5728696D01*
X5581358Y5706086D01*
X5593062Y5685814D01*
X5609614Y5669262D01*
X5629886Y5657558D01*
X5652496Y5651500D01*
X5675904D01*
X5698514Y5657558D01*
X5718786Y5669262D01*
X5735338Y5685814D01*
X5747042Y5706086D01*
X5753100Y5728696D01*
Y5752104D01*
X5747042Y5774714D01*
X5735338Y5794986D01*
X5718786Y5811538D01*
X5698514Y5823242D01*
X5675904Y5829300D01*
D02*
G37*
%LPD*%
D21*
X4526000Y8055000D02*
D03*
Y6895000D02*
D03*
D22*
X5626000Y7775000D02*
D03*
Y7575000D02*
D03*
Y7375000D02*
D03*
Y7975000D02*
D03*
Y6975000D02*
D03*
Y7175000D02*
D03*
D23*
X8972400Y5809700D02*
D03*
X8572400D02*
D03*
D24*
X7315200Y6438900D02*
D03*
X7137400Y6197600D02*
D03*
X7772400Y6210300D02*
D03*
X5664200Y5740400D02*
D03*
X4876800Y6438900D02*
D03*
%TF.MD5,b5ef7b957b8ff048f099e9cdfc28931f*%
M02*
