%TF.GenerationSoftware,Altium Limited,Altium Designer,24.10.1 (45)*%
G04 Layer_Color=8421504*
%FSLAX45Y45*%
%MOMM*%
%TF.SameCoordinates,A4C5ECB5-41BF-4DFD-91FD-69217BF74453*%
%TF.FilePolarity,Positive*%
%TF.FileFunction,Paste,Top*%
%TF.Part,Single*%
G01*
G75*
%TA.AperFunction,SMDPad,CuDef*%
%ADD10R,0.55000X0.55000*%
%ADD11R,0.55000X0.55000*%
%ADD12R,1.00000X0.60000*%
%ADD13R,2.00000X0.70000*%
%TA.AperFunction,ConnectorPad*%
%ADD14R,1.80000X2.20000*%
%TA.AperFunction,SMDPad,CuDef*%
G04:AMPARAMS|DCode=15|XSize=1.14mm|YSize=1.63mm|CornerRadius=0.1425mm|HoleSize=0mm|Usage=FLASHONLY|Rotation=180.000|XOffset=0mm|YOffset=0mm|HoleType=Round|Shape=RoundedRectangle|*
%AMROUNDEDRECTD15*
21,1,1.14000,1.34500,0,0,180.0*
21,1,0.85500,1.63000,0,0,180.0*
1,1,0.28500,-0.42750,0.67250*
1,1,0.28500,0.42750,0.67250*
1,1,0.28500,0.42750,-0.67250*
1,1,0.28500,-0.42750,-0.67250*
%
%ADD15ROUNDEDRECTD15*%
%ADD16R,0.80000X0.80000*%
%ADD17R,0.62000X0.62000*%
%ADD18R,0.75000X1.45000*%
%ADD19R,0.70000X1.82500*%
D10*
X5232400Y4298400D02*
D03*
Y4388400D02*
D03*
X4127500Y6025600D02*
D03*
Y6115600D02*
D03*
D11*
X5353600Y2921000D02*
D03*
X5263600D02*
D03*
D12*
X4934600Y6032500D02*
D03*
X5174600Y6128000D02*
D03*
Y5937000D02*
D03*
D13*
X2895600Y6136600D02*
D03*
X3495600D02*
D03*
X2895600Y5816600D02*
D03*
X3495600D02*
D03*
X2895600Y5596600D02*
D03*
X3495600D02*
D03*
X2895600Y5376600D02*
D03*
X3495600D02*
D03*
D14*
X3828900Y3365700D02*
D03*
X3538900Y4165700D02*
D03*
X3828900D02*
D03*
D15*
X5703400Y2908300D02*
D03*
X6031400D02*
D03*
D16*
X3848100Y2769800D02*
D03*
Y2919800D02*
D03*
X4127500Y5703500D02*
D03*
Y5853500D02*
D03*
D17*
X4076700Y2916200D02*
D03*
Y2824200D02*
D03*
D18*
X4698300Y2921000D02*
D03*
X4928300D02*
D03*
D19*
X5918200Y4204300D02*
D03*
X6045200D02*
D03*
X6172200D02*
D03*
X6299200D02*
D03*
X6426200D02*
D03*
X6553200D02*
D03*
X6680200D02*
D03*
Y3491900D02*
D03*
X6553200D02*
D03*
X6426200D02*
D03*
X6299200D02*
D03*
X6172200D02*
D03*
X6045200D02*
D03*
X5918200D02*
D03*
%TF.MD5,f08850944d76fd3a95b9c2213cc50bca*%
M02*
