%TF.GenerationSoftware,Altium Limited,Altium Designer,24.10.1 (45)*%
G04 Layer_Physical_Order=2*
G04 Layer_Color=16711680*
%FSLAX45Y45*%
%MOMM*%
%TF.SameCoordinates,9AD70181-00FA-4A01-9188-FD1DF1966971*%
%TF.FilePolarity,Positive*%
%TF.FileFunction,Copper,L2,Bot,Signal*%
%TF.Part,Single*%
G01*
G75*
%TA.AperFunction,ComponentPad*%
%ADD24C,0.65000*%
%ADD25C,4.45500*%
%ADD26C,1.80000*%
%TA.AperFunction,ViaPad*%
%ADD27C,0.85000*%
G36*
X14884399Y7213600D02*
X8534400D01*
Y10858500D01*
X14884399D01*
Y7213600D01*
D02*
G37*
%LPC*%
G36*
X12204700Y10480892D02*
Y10426700D01*
X12258892D01*
X12255273Y10440208D01*
X12246334Y10455692D01*
X12233692Y10468334D01*
X12218208Y10477273D01*
X12204700Y10480892D01*
D02*
G37*
G36*
X12179300D02*
X12165792Y10477273D01*
X12150308Y10468334D01*
X12137666Y10455692D01*
X12128727Y10440208D01*
X12125108Y10426700D01*
X12179300D01*
Y10480892D01*
D02*
G37*
G36*
X12258892Y10401300D02*
X12204700D01*
Y10347108D01*
X12218208Y10350727D01*
X12233692Y10359666D01*
X12246334Y10372308D01*
X12255273Y10387792D01*
X12258892Y10401300D01*
D02*
G37*
G36*
X12179300D02*
X12125108D01*
X12128727Y10387792D01*
X12137666Y10372308D01*
X12150308Y10359666D01*
X12165792Y10350727D01*
X12179300Y10347108D01*
Y10401300D01*
D02*
G37*
G36*
X14211858Y10247300D02*
X14194743D01*
X14178210Y10242870D01*
X14163390Y10234313D01*
X14151286Y10222211D01*
X14142731Y10207389D01*
X14138300Y10190858D01*
Y10173743D01*
X14142731Y10157211D01*
X14151286Y10142389D01*
X14163390Y10130287D01*
X14178210Y10121730D01*
X14194743Y10117300D01*
X14211858D01*
X14228389Y10121730D01*
X14243211Y10130287D01*
X14255313Y10142389D01*
X14263870Y10157211D01*
X14268300Y10173743D01*
Y10190858D01*
X14263870Y10207389D01*
X14255313Y10222211D01*
X14243211Y10234313D01*
X14228389Y10242870D01*
X14211858Y10247300D01*
D02*
G37*
G36*
Y9847300D02*
X14194743D01*
X14178210Y9842870D01*
X14163390Y9834313D01*
X14151286Y9822211D01*
X14142731Y9807389D01*
X14138300Y9790857D01*
Y9773742D01*
X14142731Y9757211D01*
X14151286Y9742389D01*
X14163390Y9730287D01*
X14178210Y9721730D01*
X14194743Y9717300D01*
X14211858D01*
X14228389Y9721730D01*
X14243211Y9730287D01*
X14255313Y9742389D01*
X14263870Y9757211D01*
X14268300Y9773742D01*
Y9790857D01*
X14263870Y9807389D01*
X14255313Y9822211D01*
X14243211Y9834313D01*
X14228389Y9842870D01*
X14211858Y9847300D01*
D02*
G37*
G36*
X12002207Y9656314D02*
X11984328D01*
X11967059Y9651687D01*
X11951576Y9642747D01*
X11938934Y9630105D01*
X11929994Y9614622D01*
X11925367Y9597353D01*
Y9579474D01*
X11929994Y9562205D01*
X11938934Y9546722D01*
X11951576Y9534080D01*
X11967059Y9525141D01*
X11984328Y9520514D01*
X12002207D01*
X12019476Y9525141D01*
X12034959Y9534080D01*
X12047601Y9546722D01*
X12056540Y9562205D01*
X12061167Y9579474D01*
Y9597353D01*
X12056540Y9614622D01*
X12047601Y9630105D01*
X12034959Y9642747D01*
X12019476Y9651687D01*
X12002207Y9656314D01*
D02*
G37*
G36*
X13724939Y9288100D02*
X13707060D01*
X13689792Y9283473D01*
X13674307Y9274534D01*
X13661665Y9261892D01*
X13652727Y9246408D01*
X13648100Y9229139D01*
Y9211261D01*
X13652727Y9193992D01*
X13661665Y9178508D01*
X13674307Y9165866D01*
X13689792Y9156927D01*
X13707060Y9152300D01*
X13724939D01*
X13742207Y9156927D01*
X13757692Y9165866D01*
X13770334Y9178508D01*
X13779272Y9193992D01*
X13783900Y9211261D01*
Y9229139D01*
X13779272Y9246408D01*
X13770334Y9261892D01*
X13757692Y9274534D01*
X13742207Y9283473D01*
X13724939Y9288100D01*
D02*
G37*
G36*
X12099339Y9046800D02*
X12081461D01*
X12064192Y9042173D01*
X12048708Y9033234D01*
X12036066Y9020592D01*
X12027127Y9005108D01*
X12022500Y8987839D01*
Y8969961D01*
X12027127Y8952692D01*
X12036066Y8937208D01*
X12048708Y8924566D01*
X12064192Y8915627D01*
X12081461Y8911000D01*
X12099339D01*
X12116608Y8915627D01*
X12132092Y8924566D01*
X12144734Y8937208D01*
X12153673Y8952692D01*
X12158300Y8969961D01*
Y8987839D01*
X12153673Y9005108D01*
X12144734Y9020592D01*
X12132092Y9033234D01*
X12116608Y9042173D01*
X12099339Y9046800D01*
D02*
G37*
G36*
X9965739Y8665800D02*
X9947861D01*
X9930592Y8661173D01*
X9915108Y8652234D01*
X9902466Y8639592D01*
X9893527Y8624108D01*
X9888900Y8606839D01*
Y8588961D01*
X9893527Y8571692D01*
X9902466Y8556208D01*
X9915108Y8543566D01*
X9930592Y8534627D01*
X9947861Y8530000D01*
X9965739D01*
X9983008Y8534627D01*
X9998492Y8543566D01*
X10011134Y8556208D01*
X10020073Y8571692D01*
X10024700Y8588961D01*
Y8606839D01*
X10020073Y8624108D01*
X10011134Y8639592D01*
X9998492Y8652234D01*
X9983008Y8661173D01*
X9965739Y8665800D01*
D02*
G37*
G36*
X14027641Y9021250D02*
X13978758D01*
X13930817Y9011714D01*
X13885657Y8993008D01*
X13845013Y8965850D01*
X13810451Y8931286D01*
X13783292Y8890643D01*
X13764586Y8845483D01*
X13755051Y8797541D01*
Y8748659D01*
X13764586Y8700717D01*
X13783292Y8655557D01*
X13810451Y8614914D01*
X13845013Y8580350D01*
X13885657Y8553192D01*
X13930817Y8534486D01*
X13978758Y8524950D01*
X14027641D01*
X14075583Y8534486D01*
X14120743Y8553192D01*
X14161386Y8580350D01*
X14195950Y8614914D01*
X14223108Y8655557D01*
X14241814Y8700717D01*
X14251350Y8748659D01*
Y8797541D01*
X14241814Y8845483D01*
X14223108Y8890643D01*
X14195950Y8931286D01*
X14161386Y8965850D01*
X14120743Y8993008D01*
X14075583Y9011714D01*
X14027641Y9021250D01*
D02*
G37*
G36*
X9359900Y8220292D02*
Y8166100D01*
X9414092D01*
X9410473Y8179608D01*
X9401534Y8195092D01*
X9388892Y8207734D01*
X9373408Y8216673D01*
X9359900Y8220292D01*
D02*
G37*
G36*
X9334500D02*
X9320992Y8216673D01*
X9305508Y8207734D01*
X9292866Y8195092D01*
X9283927Y8179608D01*
X9280308Y8166100D01*
X9334500D01*
Y8220292D01*
D02*
G37*
G36*
X11023600Y8182192D02*
Y8128000D01*
X11077792D01*
X11074173Y8141508D01*
X11065234Y8156992D01*
X11052592Y8169634D01*
X11037108Y8178573D01*
X11023600Y8182192D01*
D02*
G37*
G36*
X10998200D02*
X10984692Y8178573D01*
X10969208Y8169634D01*
X10956566Y8156992D01*
X10947627Y8141508D01*
X10944008Y8128000D01*
X10998200D01*
Y8182192D01*
D02*
G37*
G36*
X9414092Y8140700D02*
X9359900D01*
Y8086508D01*
X9373408Y8090127D01*
X9388892Y8099066D01*
X9401534Y8111708D01*
X9410473Y8127192D01*
X9414092Y8140700D01*
D02*
G37*
G36*
X9334500D02*
X9280308D01*
X9283927Y8127192D01*
X9292866Y8111708D01*
X9305508Y8099066D01*
X9320992Y8090127D01*
X9334500Y8086508D01*
Y8140700D01*
D02*
G37*
G36*
X11077792Y8102600D02*
X11023600D01*
Y8048408D01*
X11037108Y8052027D01*
X11052592Y8060966D01*
X11065234Y8073608D01*
X11074173Y8089092D01*
X11077792Y8102600D01*
D02*
G37*
G36*
X10998200D02*
X10944008D01*
X10947627Y8089092D01*
X10956566Y8073608D01*
X10969208Y8060966D01*
X10984692Y8052027D01*
X10998200Y8048408D01*
Y8102600D01*
D02*
G37*
G36*
X12319000Y7763092D02*
Y7708900D01*
X12373192D01*
X12369573Y7722408D01*
X12360634Y7737892D01*
X12347992Y7750534D01*
X12332508Y7759473D01*
X12319000Y7763092D01*
D02*
G37*
G36*
X12293600D02*
X12280092Y7759473D01*
X12264608Y7750534D01*
X12251966Y7737892D01*
X12243027Y7722408D01*
X12239408Y7708900D01*
X12293600D01*
Y7763092D01*
D02*
G37*
G36*
X12918393Y8808500D02*
X12888007D01*
X12858656Y8800636D01*
X12832343Y8785443D01*
X12810857Y8763957D01*
X12795665Y8737643D01*
X12787800Y8708293D01*
Y8677907D01*
X12795665Y8648558D01*
X12810857Y8622243D01*
X12823457Y8609643D01*
X12829530Y8593100D01*
X12823457Y8576558D01*
X12810857Y8563957D01*
X12795665Y8537643D01*
X12787800Y8508293D01*
Y8477907D01*
X12795665Y8448557D01*
X12810857Y8422243D01*
X12823457Y8409643D01*
X12829530Y8393100D01*
X12823457Y8376558D01*
X12810857Y8363957D01*
X12795665Y8337643D01*
X12787800Y8308293D01*
Y8277907D01*
X12795665Y8248557D01*
X12810857Y8222243D01*
X12823457Y8209642D01*
X12829530Y8193100D01*
X12823457Y8176558D01*
X12810857Y8163957D01*
X12795665Y8137643D01*
X12787800Y8108293D01*
Y8077907D01*
X12795665Y8048557D01*
X12810857Y8022243D01*
X12823457Y8009643D01*
X12829530Y7993100D01*
X12823457Y7976558D01*
X12810857Y7963957D01*
X12795665Y7937643D01*
X12787800Y7908293D01*
Y7877907D01*
X12795665Y7848557D01*
X12810857Y7822243D01*
X12823457Y7809642D01*
X12829530Y7793100D01*
X12823457Y7776558D01*
X12810857Y7763957D01*
X12795665Y7737643D01*
X12787800Y7708293D01*
Y7705800D01*
X12903200D01*
X13018600D01*
Y7708293D01*
X13010735Y7737643D01*
X12995543Y7763957D01*
X12982942Y7776558D01*
X12976869Y7793100D01*
X12982942Y7809642D01*
X12995543Y7822243D01*
X13010735Y7848557D01*
X13018600Y7877907D01*
Y7908293D01*
X13010735Y7937643D01*
X12995543Y7963957D01*
X12982942Y7976558D01*
X12976869Y7993100D01*
X12982942Y8009643D01*
X12995543Y8022243D01*
X13010735Y8048557D01*
X13018600Y8077907D01*
Y8108293D01*
X13010735Y8137643D01*
X12995543Y8163957D01*
X12982942Y8176558D01*
X12976869Y8193100D01*
X12982942Y8209642D01*
X12995543Y8222243D01*
X13010735Y8248557D01*
X13018600Y8277907D01*
Y8308293D01*
X13010735Y8337643D01*
X12995543Y8363957D01*
X12982942Y8376558D01*
X12976869Y8393100D01*
X12982942Y8409643D01*
X12995543Y8422243D01*
X13010735Y8448557D01*
X13018600Y8477907D01*
Y8508293D01*
X13010735Y8537643D01*
X12995543Y8563957D01*
X12982942Y8576558D01*
X12976869Y8593100D01*
X12982942Y8609643D01*
X12995543Y8622243D01*
X13010735Y8648558D01*
X13018600Y8677907D01*
Y8708293D01*
X13010735Y8737643D01*
X12995543Y8763957D01*
X12974057Y8785443D01*
X12947743Y8800636D01*
X12918393Y8808500D01*
D02*
G37*
G36*
X12373192Y7683500D02*
X12319000D01*
Y7629308D01*
X12332508Y7632927D01*
X12347992Y7641866D01*
X12360634Y7654508D01*
X12369573Y7669992D01*
X12373192Y7683500D01*
D02*
G37*
G36*
X12293600D02*
X12239408D01*
X12243027Y7669992D01*
X12251966Y7654508D01*
X12264608Y7641866D01*
X12280092Y7632927D01*
X12293600Y7629308D01*
Y7683500D01*
D02*
G37*
G36*
X13018600Y7680400D02*
X12915900D01*
Y7577700D01*
X12918393D01*
X12947743Y7585565D01*
X12974057Y7600757D01*
X12995543Y7622243D01*
X13010735Y7648557D01*
X13018600Y7677907D01*
Y7680400D01*
D02*
G37*
G36*
X12890500D02*
X12787800D01*
Y7677907D01*
X12795665Y7648557D01*
X12810857Y7622243D01*
X12832343Y7600757D01*
X12858656Y7585565D01*
X12888007Y7577700D01*
X12890500D01*
Y7680400D01*
D02*
G37*
G36*
X14027641Y7861250D02*
X13978758D01*
X13930817Y7851714D01*
X13885657Y7833008D01*
X13845013Y7805851D01*
X13810451Y7771286D01*
X13783292Y7730643D01*
X13764586Y7685483D01*
X13755051Y7637541D01*
Y7588659D01*
X13764586Y7540717D01*
X13783292Y7495557D01*
X13810451Y7454914D01*
X13845013Y7420350D01*
X13885657Y7393192D01*
X13930817Y7374486D01*
X13978758Y7364950D01*
X14027641D01*
X14075583Y7374486D01*
X14120743Y7393192D01*
X14161386Y7420350D01*
X14195950Y7454914D01*
X14223108Y7495557D01*
X14241814Y7540717D01*
X14251350Y7588659D01*
Y7637541D01*
X14241814Y7685483D01*
X14223108Y7730643D01*
X14195950Y7771286D01*
X14161386Y7805851D01*
X14120743Y7833008D01*
X14075583Y7851714D01*
X14027641Y7861250D01*
D02*
G37*
%LPD*%
D24*
X14203300Y10182300D02*
D03*
Y9782300D02*
D03*
D25*
X14003200Y7613100D02*
D03*
Y8773100D02*
D03*
D26*
X12903200Y7893100D02*
D03*
Y8093100D02*
D03*
Y8293100D02*
D03*
Y7693100D02*
D03*
Y8693100D02*
D03*
Y8493100D02*
D03*
D27*
X11993267Y9588414D02*
D03*
X13716000Y9220200D02*
D03*
X12090400Y8978900D02*
D03*
X9956800Y8597900D02*
D03*
X12192000Y10414000D02*
D03*
X11010900Y8115300D02*
D03*
X12306300Y7696200D02*
D03*
X9347200Y8153400D02*
D03*
%TF.MD5,7c3e44836eb2891071b2e10ce861caa7*%
M02*
