%TF.GenerationSoftware,Altium Limited,Altium Designer,24.10.1 (45)*%
G04 Layer_Physical_Order=1*
G04 Layer_Color=255*
%FSLAX45Y45*%
%MOMM*%
%TF.SameCoordinates,9AD70181-00FA-4A01-9188-FD1DF1966971*%
%TF.FilePolarity,Positive*%
%TF.FileFunction,Copper,L1,Top,Signal*%
%TF.Part,Single*%
G01*
G75*
%TA.AperFunction,SMDPad,CuDef*%
%ADD10R,0.55000X0.55000*%
%ADD11R,0.75000X1.45000*%
%ADD12R,0.55000X0.55000*%
%ADD13R,1.00000X0.60000*%
%ADD14R,0.80000X0.80000*%
%ADD15R,1.80000X2.20000*%
%ADD16R,0.62000X0.62000*%
%ADD17R,0.62000X0.62000*%
%ADD18R,1.82500X0.70000*%
%ADD19R,0.80000X1.25000*%
G04:AMPARAMS|DCode=20|XSize=1.14mm|YSize=1.63mm|CornerRadius=0.1425mm|HoleSize=0mm|Usage=FLASHONLY|Rotation=180.000|XOffset=0mm|YOffset=0mm|HoleType=Round|Shape=RoundedRectangle|*
%AMROUNDEDRECTD20*
21,1,1.14000,1.34500,0,0,180.0*
21,1,0.85500,1.63000,0,0,180.0*
1,1,0.28500,-0.42750,0.67250*
1,1,0.28500,0.42750,0.67250*
1,1,0.28500,0.42750,-0.67250*
1,1,0.28500,-0.42750,-0.67250*
%
%ADD20ROUNDEDRECTD20*%
%ADD21R,2.00000X0.70000*%
%TA.AperFunction,NonConductor*%
%ADD22C,0.25400*%
%TA.AperFunction,Conductor*%
%ADD23C,0.25400*%
%TA.AperFunction,ComponentPad*%
%ADD24C,0.65000*%
%ADD25C,4.45500*%
%ADD26C,1.80000*%
%TA.AperFunction,ViaPad*%
%ADD27C,0.85000*%
D10*
X12401000Y9906000D02*
D03*
X12491000D02*
D03*
X11075500Y7696200D02*
D03*
X10985500D02*
D03*
D11*
X12165900Y9588500D02*
D03*
X12395900D02*
D03*
D12*
X9537700Y8287300D02*
D03*
Y8197300D02*
D03*
D13*
X10560700Y7785100D02*
D03*
X10800700Y7880600D02*
D03*
Y7689600D02*
D03*
D14*
X9230500Y8280400D02*
D03*
X9080500D02*
D03*
D15*
X13413300Y10312300D02*
D03*
X13703300Y9512300D02*
D03*
X13413300D02*
D03*
D16*
X12496800Y10409200D02*
D03*
Y10317200D02*
D03*
X12877800Y10317200D02*
D03*
Y10409200D02*
D03*
D17*
X11777700Y7696200D02*
D03*
X11869700D02*
D03*
X11396700D02*
D03*
X11488700D02*
D03*
D18*
X11163300Y8445500D02*
D03*
Y8572500D02*
D03*
Y8699500D02*
D03*
Y8826500D02*
D03*
Y8953500D02*
D03*
Y9080500D02*
D03*
Y9207500D02*
D03*
X11875700D02*
D03*
Y9080500D02*
D03*
Y8953500D02*
D03*
Y8826500D02*
D03*
Y8699500D02*
D03*
Y8572500D02*
D03*
Y8445500D02*
D03*
D19*
X10668000Y8115400D02*
D03*
Y8445400D02*
D03*
D20*
X9081600Y7975600D02*
D03*
X9409600D02*
D03*
D21*
X9685300Y8598900D02*
D03*
X9085300D02*
D03*
X9685300Y8918900D02*
D03*
X9085300D02*
D03*
X9685300Y9138900D02*
D03*
X9085300D02*
D03*
X9685300Y9358900D02*
D03*
X9085300D02*
D03*
D22*
X8534400Y7213600D02*
X14884399D01*
X8534400Y10858500D02*
X14884399D01*
Y7213600D02*
Y10858500D01*
X8534400Y7213600D02*
Y10858500D01*
D23*
X11993267Y9588414D02*
X12165814D01*
X12165900Y9588500D01*
X9956300Y8598400D02*
X9956800Y8597900D01*
X9685300Y8598900D02*
X9685800Y8598400D01*
X9956300D01*
X13716000Y9220200D02*
Y9499600D01*
X13703300Y9512300D02*
X13716000Y9499600D01*
X12903200Y8693100D02*
X13430299Y9220200D01*
X13716000D01*
X11931950Y8826500D02*
X12084350Y8978900D01*
X11875700Y8826500D02*
X11931950D01*
X12084350Y8978900D02*
X12090400D01*
X12893700Y8683600D02*
X12903200Y8693100D01*
X12496800Y10311400D02*
Y10317200D01*
X12491000Y10305600D02*
X12496800Y10311400D01*
X12491000Y9906000D02*
Y10305600D01*
X12398450Y9903450D02*
X12401000Y9906000D01*
X12398450Y9591050D02*
Y9903450D01*
X12395900Y9588500D02*
X12398450Y9591050D01*
X12522200Y10409200D02*
X12877800D01*
X12192000Y10414000D02*
X12517400D01*
X12522200Y10409200D01*
X12877800Y10317200D02*
X13408400D01*
X13413300Y10312300D01*
X11931950Y8699500D02*
X12744750Y9512300D01*
X11875700Y8699500D02*
X11931950D01*
X12744750Y9512300D02*
X13413300D01*
X12395900Y9417450D02*
Y9588500D01*
X11931950Y8953500D02*
X12395900Y9417450D01*
X11875700Y8953500D02*
X11931950D01*
X12011350Y8493100D02*
X12903200D01*
X11931950Y8572500D02*
X12011350Y8493100D01*
X11875700Y8572500D02*
X11931950D01*
X12307850Y7694650D02*
X12901649D01*
X12903200Y7693100D01*
X12306300Y7696200D02*
X12307850Y7694650D01*
X11797150Y8423200D02*
X11819450Y8445500D01*
X11396700Y7696200D02*
Y7868625D01*
X11819450Y8445500D02*
X11875700D01*
X11797150Y8269075D02*
Y8423200D01*
X11396700Y7868625D02*
X11797150Y8269075D01*
X11869700Y7696200D02*
X12306300D01*
X10668100Y8445500D02*
X11163300D01*
X10668000Y8445400D02*
X10668100Y8445500D01*
X10668000Y8115400D02*
X10668100Y8115300D01*
X11010900D01*
X10800700Y7880600D02*
Y7960200D01*
X10668000Y8092900D02*
X10800700Y7960200D01*
X10668000Y8092900D02*
Y8115400D01*
X11488700Y7696200D02*
X11777700D01*
X11075500D02*
X11396700D01*
X10982200Y7692900D02*
X10985500Y7696200D01*
X10804000Y7692900D02*
X10982200D01*
X10800700Y7689600D02*
X10804000Y7692900D01*
X9081600Y7951100D02*
X9247600Y7785100D01*
X9081600Y7951100D02*
Y7975600D01*
X9247600Y7785100D02*
X10560700D01*
X9670201Y8598900D02*
X9685300D01*
X9647900Y8576600D02*
X9670201Y8598900D01*
X9597331Y8098731D02*
X9647900Y8149300D01*
Y8576600D01*
X9508231Y8098731D02*
X9597331D01*
X9409600Y7975600D02*
Y8000100D01*
X9508231Y8098731D01*
X9363328Y8153400D02*
X9407228Y8197300D01*
X9537700D01*
X9347200Y8153400D02*
X9363328D01*
X9230500Y8280400D02*
X9237400Y8287300D01*
X9537700D01*
X9081600Y7975600D02*
Y8279300D01*
X9080500Y8280400D02*
X9081600Y8279300D01*
X9080500Y8594100D02*
X9085300Y8598900D01*
X9080500Y8280400D02*
Y8594100D01*
D24*
X14203300Y10182300D02*
D03*
Y9782300D02*
D03*
D25*
X14003200Y7613100D02*
D03*
Y8773100D02*
D03*
D26*
X12903200Y7893100D02*
D03*
Y8093100D02*
D03*
Y8293100D02*
D03*
Y7693100D02*
D03*
Y8693100D02*
D03*
Y8493100D02*
D03*
D27*
X11993267Y9588414D02*
D03*
X13716000Y9220200D02*
D03*
X12090400Y8978900D02*
D03*
X9956800Y8597900D02*
D03*
X12192000Y10414000D02*
D03*
X11010900Y8115300D02*
D03*
X12306300Y7696200D02*
D03*
X9347200Y8153400D02*
D03*
%TF.MD5,52bbd2938aa3810602c56bb42784ecae*%
M02*
