%TF.GenerationSoftware,Altium Limited,Altium Designer,24.10.1 (45)*%
G04 Layer_Color=8421504*
%FSLAX45Y45*%
%MOMM*%
%TF.SameCoordinates,9AD70181-00FA-4A01-9188-FD1DF1966971*%
%TF.FilePolarity,Positive*%
%TF.FileFunction,Paste,Top*%
%TF.Part,Single*%
G01*
G75*
%TA.AperFunction,SMDPad,CuDef*%
%ADD10R,0.55000X0.55000*%
%ADD11R,0.75000X1.45000*%
%ADD12R,0.55000X0.55000*%
%ADD13R,1.00000X0.60000*%
%ADD14R,0.80000X0.80000*%
%ADD15R,1.80000X2.20000*%
%ADD16R,0.62000X0.62000*%
%ADD17R,0.62000X0.62000*%
%ADD18R,1.82500X0.70000*%
%ADD19R,0.80000X1.25000*%
G04:AMPARAMS|DCode=20|XSize=1.14mm|YSize=1.63mm|CornerRadius=0.1425mm|HoleSize=0mm|Usage=FLASHONLY|Rotation=180.000|XOffset=0mm|YOffset=0mm|HoleType=Round|Shape=RoundedRectangle|*
%AMROUNDEDRECTD20*
21,1,1.14000,1.34500,0,0,180.0*
21,1,0.85500,1.63000,0,0,180.0*
1,1,0.28500,-0.42750,0.67250*
1,1,0.28500,0.42750,0.67250*
1,1,0.28500,0.42750,-0.67250*
1,1,0.28500,-0.42750,-0.67250*
%
%ADD20ROUNDEDRECTD20*%
%ADD21R,2.00000X0.70000*%
D10*
X12401000Y9906000D02*
D03*
X12491000D02*
D03*
X11075500Y7696200D02*
D03*
X10985500D02*
D03*
D11*
X12165900Y9588500D02*
D03*
X12395900D02*
D03*
D12*
X9537700Y8287300D02*
D03*
Y8197300D02*
D03*
D13*
X10560700Y7785100D02*
D03*
X10800700Y7880600D02*
D03*
Y7689600D02*
D03*
D14*
X9230500Y8280400D02*
D03*
X9080500D02*
D03*
D15*
X13413300Y10312300D02*
D03*
X13703300Y9512300D02*
D03*
X13413300D02*
D03*
D16*
X12496800Y10409200D02*
D03*
Y10317200D02*
D03*
X12877800Y10317200D02*
D03*
Y10409200D02*
D03*
D17*
X11777700Y7696200D02*
D03*
X11869700D02*
D03*
X11396700D02*
D03*
X11488700D02*
D03*
D18*
X11163300Y8445500D02*
D03*
Y8572500D02*
D03*
Y8699500D02*
D03*
Y8826500D02*
D03*
Y8953500D02*
D03*
Y9080500D02*
D03*
Y9207500D02*
D03*
X11875700D02*
D03*
Y9080500D02*
D03*
Y8953500D02*
D03*
Y8826500D02*
D03*
Y8699500D02*
D03*
Y8572500D02*
D03*
Y8445500D02*
D03*
D19*
X10668000Y8115400D02*
D03*
Y8445400D02*
D03*
D20*
X9081600Y7975600D02*
D03*
X9409600D02*
D03*
D21*
X9685300Y8598900D02*
D03*
X9085300D02*
D03*
X9685300Y8918900D02*
D03*
X9085300D02*
D03*
X9685300Y9138900D02*
D03*
X9085300D02*
D03*
X9685300Y9358900D02*
D03*
X9085300D02*
D03*
%TF.MD5,3894e407a227a39c9b15566048e84774*%
M02*
