M48
;Layer_Color=9474304
;FILE_FORMAT=4:4
METRIC,LZ
;TYPE=PLATED
T01F00S00C0.4000
T02F00S00C1.3000
T03F00S00C2.0000
T04F00S00C2.9700
;TYPE=NON_PLATED
T05F00S00C1.3000
%
T01
X000395Y0016125
X0014025Y002325
X0017175Y0028275
X001455Y0034225
X002405Y0030725
X00254526Y00380262
X003365Y0029325
X00322Y002635
X0035225Y0013375
T02
X002025Y0020425
X002225
X002425
X002625
X002825
X003025
T03
X0003Y0037
X0047
T04
X001945Y0009425
X003105
T05
X000805Y0007025
X001205
X0039825Y0006875
X0043825
M30
